<?xml version="1.0" standalone="no"?>
<!DOCTYPE svg PUBLIC "-//W3C//DTD SVG 1.1//EN" "http://www.w3.org/Graphics/SVG/1.1/DTD/svg11.dtd" >
<svg>
<metadata>
Created by FontForge 20110222 at Fri Oct  3 09:12:37 2014
 By Orthosie Webhosting
Comic Book (c) (Neale Davidson). 2011. All Rights Reserved
</metadata>
<defs>
<font id="ComicBookRegular" horiz-adv-x="1014" >
  <font-face 
    font-family="ComicBookRegular"
    font-weight="400"
    font-stretch="normal"
    units-per-em="2048"
    panose-1="2 0 5 0 0 0 0 0 0 0"
    ascent="1638"
    descent="-410"
    x-height="1149"
    cap-height="1480"
    bbox="-342 -418 2183 1716"
    underline-thickness="150"
    underline-position="-142"
    unicode-range="U+0020-F002"
  />
<missing-glyph horiz-adv-x="1024" 
d="M100 0v1434h824v-1434h-824zM150 50h724v1334h-724v-1334zM325 1148q31 28 58 43q53 30 112 30q92 0 148 -47.5t56 -127.5q0 -49 -23 -98.5t-87 -129.5q-63 -80 -99 -132t-36 -99q0 -38 24 -133h-32q-35 97 -35 148q0 76 81.5 218t81.5 217q0 57 -33 90t-91 33
q-38 0 -69 -17q-26 -15 -56 -40v45zM389 334l57 58q11 10 20 10q10 0 22 -11l56 -60q9 -11 9 -20q0 -11 -10 -22l-56 -62q-14 -14 -21 -14q-11 0 -20 10l-61 71q-7 9 -7 18q0 10 11 22z" />
    <glyph glyph-name=".notdef" horiz-adv-x="1024" 
d="M100 0v1434h824v-1434h-824zM150 50h724v1334h-724v-1334zM325 1148q31 28 58 43q53 30 112 30q92 0 148 -47.5t56 -127.5q0 -49 -23 -98.5t-87 -129.5q-63 -80 -99 -132t-36 -99q0 -38 24 -133h-32q-35 97 -35 148q0 76 81.5 218t81.5 217q0 57 -33 90t-91 33
q-38 0 -69 -17q-26 -15 -56 -40v45zM389 334l57 58q11 10 20 10q10 0 22 -11l56 -60q9 -11 9 -20q0 -11 -10 -22l-56 -62q-14 -14 -21 -14q-11 0 -20 10l-61 71q-7 9 -7 18q0 10 11 22z" />
    <glyph glyph-name=".null" horiz-adv-x="0" 
 />
    <glyph glyph-name="nonmarkingreturn" horiz-adv-x="508" 
 />
    <glyph glyph-name="space" unicode=" " horiz-adv-x="651" 
 />
    <glyph glyph-name="space" unicode="&#xa0;" horiz-adv-x="651" 
 />
    <glyph glyph-name="exclam" unicode="!" horiz-adv-x="1054" 
d="M409 987q15 37 166 432q29 47 168 47q37 0 156 -6q69 -3 118 -3q24 0 43 1h5q65 0 65 -47q0 -115 -342 -461q-244 -372 -244 -413q0 -4 2 -5q1 -1 1 -2q0 -6 -74 -6q-62 0 -164 4q-37 2 -90 4q28 23 76 154q92 250 114 301zM294 380q107 -45 107 -139q0 -33 -26 -78
l-29 -40q-47 -51 -90 -81q-64 -40 -117 -41q-38 0 -66 15q-69 46 -70 125q0 72 49 122l74 71l8 8q55 42 106 43q28 0 54 -5z" />
    <glyph glyph-name="quotedbl" unicode="&#x22;" horiz-adv-x="823" 
d="M284 1415q107 -45 107 -139q0 -33 -26 -78q-29 -50 -94 -123q-58 -88 -125 -121q-17 -4 -34 -4q-44 0 -81 26q60 59 74 104q1 7 1 13q0 67 -117 67q0 72 53 138l74 71l8 8q55 42 106 43q28 0 54 -5zM776 1412q107 -45 107 -139q0 -33 -26 -78q-29 -50 -94 -123
q-58 -88 -125 -121q-17 -4 -34 -4q-44 0 -81 26q60 59 74 104q1 7 1 13q0 67 -117 67q0 72 53 138l74 71l8 8q55 42 106 43q28 0 54 -5z" />
    <glyph glyph-name="numbersign" unicode="#" horiz-adv-x="1300" 
d="M721 705l41 118q-72 -2 -143 -4q-23 -65 -41 -125q75 6 143 11zM563 276q21 41 74 189q-72 -2 -141 -4q-52 -137 -76 -182q-14 -43 -160 -43q-172 0 -172 34q0 4 4 9q21 38 70 176q-27 0 -37 2q-1 -3 -4 -3q-12 0 -61 58q-62 72 -62 113q0 16 10 24q4 2 230 21l49 141
q-86 0 -109 2q-1 -3 -3 -3q-12 0 -62 59q-62 71 -62 112q0 16 10 25q5 4 302 26q71 211 84 236q16 45 145 45q131 0 166 -53q-12 -43 -64 -205q80 6 152 10q61 178 72 201q16 45 145 45q131 0 166 -54q-12 -36 -57 -182q94 -2 98 -14t45 -65.5t41 -80.5q0 -28 -37 -42.5
t-221 -28.5l-41 -125q155 0 159.5 -13.5t45.5 -66.5t41 -80q0 -29 -37 -43q-43 -18 -291 -35q-57 -155 -84 -205q-14 -43 -160 -43q-172 0 -172 35q0 4 4 8z" />
    <glyph glyph-name="dollar" unicode="$" horiz-adv-x="1427" 
d="M683 1122q-225 -21 -225 -122v-9q6 -55 149 -94q41 123 76 225zM863 864q15 -1 29 -1t27 1q29 1 56 1q400 0 400 -287q0 -29 -8 -95q-18 -141 -225 -225q-197 -80 -475 -80q-31 -125 -74 -178q-16 -4 -43 -4q-70 0 -119 27q-65 32 -65 98q0 37 22 84q-227 53 -350 227
q-4 4 -4 12q0 39 94 106.5t148 67.5q28 0 32 -22q15 -82 162 -131l74 233q-100 -2 -127 -10q-8 -2 -18 -2q-72 0 -162 76q-86 71 -86 133q0 8 2 16q33 185 121 281q77 84 221 127q106 33 274 53q78 211 109 242q18 18 43 18q51 0 112 -73q56 -68 56 -97q0 -4 -4 -4
q-2 0 -4 1h-1q-9 0 -38 -73q366 -8 456 -192q19 -37 19 -74q0 -73 -58.5 -126.5t-121.5 -53.5q-97 0 -109 115q-8 71 -276 75q-39 -114 -89 -266zM728 430q285 6 353 143q4 11 4 19q0 72 -277 98z" />
    <glyph glyph-name="percent" unicode="%" horiz-adv-x="1513" 
d="M176 0q-6 -10 -24 -10q-39 0 -93.5 47t-54.5 90q0 16 8 29q29 43 345 370q333 346 342 357q59 35 317 282q266 256 270 258q41 31 129 31q119 0 119 -72q0 -28 -20 -65q-56 -96 -428 -426q-381 -336 -410 -377v1q-11 0 -223 -214q-230 -229 -277 -301zM1395 207
q-57 -57 -117 -115q-93 -93 -255 -93q-18 0 -38 1q-88 6 -162 70q-76 68 -76 163q0 10 1 19q14 172 164 301q125 111 245 111q16 0 31 -2q117 -15 195 -117q71 -92 71 -189q0 -82 -59 -149zM977 301q0 -49 90 -49h5q116 0 116 90q0 68 -72 76q-11 1 -21 1q-84 0 -110 -77
q-8 -25 -8 -41zM647 991q-57 -57 -116 -114q-94 -94 -255 -94q-19 0 -38 1q-88 7 -162 70q-77 69 -77 164q0 9 1 18q15 172 164 301q125 111 246 111q16 0 31 -2q116 -14 194 -117q72 -92 72 -188q0 -82 -60 -150zM230 1085q0 -49 90 -49h5q116 0 116 90q0 68 -72 76
q-11 1 -21 1q-85 0 -110 -77q-8 -24 -8 -41z" />
    <glyph glyph-name="ampersand" unicode="&#x26;" horiz-adv-x="1157" 
d="M423 586q-172 -76 -172 -160q0 -47 84 -57zM636 1102h-20q-144 -2 -227.5 -32t-83.5 -73q0 -63 161 -114q25 -9 72 -13q53 127 98 232zM567 1339q80 0 170 -6q110 250 141 281q18 18 43 18q51 0 113 -73q55 -68 55 -97q0 -4 -3 -4h-4q-16 0 -83 -162q239 -50 239 -125v-4
q-8 -98 -139 -147q-78 51 -184 70q-39 -101 -86 -226q43 0 80 2q-34 -180 -71 -180h-10q-19 0 -69 -6l-92 -250q164 66 268 166q6 6 15 6q37 0 95 -66.5t58 -113.5q0 -19 -12 -31q-33 -33 -208 -109.5t-318 -121.5q-86 -207 -136 -269q-16 -4 -43 -4q-67 0 -118 27
q-66 33 -66 98q0 37 23 84q2 4 18 47q-104 31 -160.5 107t-56.5 166q0 227 260 262q-194 110 -194 278q0 148 141 264.5t334 118.5z" />
    <glyph glyph-name="quotesingle" unicode="'" horiz-adv-x="370" 
d="M284 1415q107 -45 107 -139q0 -33 -26 -78q-29 -50 -94 -123q-58 -88 -125 -121q-17 -4 -34 -4q-44 0 -81 26q60 59 74 104q1 7 1 13q0 67 -117 67q0 72 53 138l74 71l8 8q55 42 106 43q28 0 54 -5z" />
    <glyph glyph-name="parenleft" unicode="(" horiz-adv-x="997" 
d="M422 305q86 -47 205 -47q14 -53 14 -90q0 -94 -125 -168q-219 0 -350 76q-164 96 -164 297q0 415 297 760q307 356 704 356l66 -123q-8 -53 -37 -94q-33 -47 -82 -49q-207 -13 -413 -242q-220 -244 -220 -510q0 -109 105 -166z" />
    <glyph glyph-name="parenright" unicode=")" horiz-adv-x="1081" 
d="M444 63q-205 -63 -403 -63q-35 8 -35 51q0 55 51 129t94 78h21q174 0 342 125q160 117 266 301q103 176 103 320q0 106 -113 170q-92 51 -209 51q-68 4 -68 110q0 115 88 158q228 0 388.5 -141.5t160.5 -368.5q0 -276 -342 -717q-98 -127 -344 -203z" />
    <glyph glyph-name="asterisk" unicode="*" horiz-adv-x="1026" 
d="M137 397q29 23 166 283q-63 -2 -104 -2t-60 2q-1 -3 -3 -3q-12 0 -62 59q-62 71 -62 112q0 16 8 22.5t289 36.5q-84 154 -172 310q35 53 166 53q129 0 145 -45q29 -60 66 -131l65 131q17 45 146 45q131 0 166 -53q-35 -62 -152 -273q64 3 106 3q80 0 84 -10
q5 -15 46 -68.5t41 -80.5q0 -28 -37 -43q-49 -20 -267 -38q150 -285 179 -310q4 -4 4 -8q0 -35 -172 -35q-146 0 -160 43q1 1 1 3q0 21 -50 120q-50 -98 -50 -119q0 -3 1 -4q-15 -43 -160 -43q-172 0 -172 35q0 4 4 8z" />
    <glyph glyph-name="plus" unicode="+" horiz-adv-x="1003" 
d="M137 397q29 23 166 283q-63 -2 -104 -2t-60 2q-1 -3 -3 -3q-12 0 -62 59q-62 71 -62 112q0 16 10 24.5t404 47.5q82 159 153 305q17 45 146 45q131 0 166 -53q-35 -62 -152 -273q64 3 106 3q80 0 84 -10q5 -15 46 -68.5t41 -80.5q0 -28 -37 -43q-62 -26 -373 -49
q-142 -264 -142 -296q0 -2 1 -3q-15 -43 -160 -43q-172 0 -172 35q0 4 4 8z" />
    <glyph glyph-name="comma" unicode="," horiz-adv-x="522" 
d="M292 372q107 -45 107 -139q0 -33 -26 -78q-29 -50 -94 -123q-58 -88 -125 -121q-17 -4 -34 -4q-44 0 -81 26q60 59 74 104q1 7 1 13q0 67 -117 67q0 72 53 138l74 71l8 8q55 42 106 43q28 0 54 -5z" />
    <glyph glyph-name="hyphen" unicode="-" horiz-adv-x="1052" 
d="M348 911q346 35 491 35q86 0 90.5 -12t45.5 -65.5t41 -80.5q0 -28 -37 -43q-68 -28 -422 -51q-245 -16 -355 -16q-41 0 -63 2q-1 -3 -3 -3q-12 0 -62 59q-62 71 -62 112q0 16 9 23.5t327 39.5z" />
    <glyph glyph-name="hyphen" unicode="&#xad;" horiz-adv-x="1052" 
d="M348 911q346 35 491 35q86 0 90.5 -12t45.5 -65.5t41 -80.5q0 -28 -37 -43q-68 -28 -422 -51q-245 -16 -355 -16q-41 0 -63 2q-1 -3 -3 -3q-12 0 -62 59q-62 71 -62 112q0 16 9 23.5t327 39.5z" />
    <glyph glyph-name="period" unicode="." horiz-adv-x="520" 
d="M294 380q107 -45 107 -139q0 -33 -26 -78l-29 -40q-47 -51 -90 -81q-64 -40 -117 -41q-38 0 -66 15q-69 46 -70 125q0 72 49 122l74 71l8 8q55 42 106 43q28 0 54 -5z" />
    <glyph glyph-name="slash" unicode="/" horiz-adv-x="1431" 
d="M176 0q-6 -10 -25 -10q-38 0 -92.5 47t-54.5 90q0 16 8 29q29 43 344 370q334 346 342 357q60 35 318 282q266 256 270 258q41 31 129 31q119 0 119 -72q0 -28 -21 -65q-55 -96 -428 -426q-381 -336 -409 -377v1q-11 0 -223 -214q-230 -229 -277 -301z" />
    <glyph glyph-name="zero" unicode="0" horiz-adv-x="1556" 
d="M1264 266q-99 -127 -344 -203q-205 -63 -404 -63q-219 0 -350 76q-164 96 -164 297q0 264 154 528q149 258 387 420q250 172 514 172q227 0 388 -141.5t161 -368.5q0 -276 -342 -717zM422 305q86 -47 205 -47q209 0 470 268.5t261 477.5q0 106 -113 170q-92 51 -209 51
q-282 0 -500.5 -235.5t-218.5 -518.5q0 -109 105 -166z" />
    <glyph glyph-name="one" unicode="1" horiz-adv-x="743" 
d="M0 115q266 544 418 909q0 2 -4 2q-11 0 -92.5 -22.5t-100.5 -22.5q-6 0 -8 2q-2 3 -2 12q0 38 27 185q77 63 139 108q147 111 188 121q72 16 123 16q108 0 108 -66q0 -7 -1 -16q-21 -114 -70 -235q-39 -94 -53 -109q-92 -186 -185 -372q-206 -414 -225 -496
q-39 -47 -80 -94q-34 -39 -80 -39q-10 0 -20 2q-78 12 -82 115z" />
    <glyph glyph-name="two" unicode="2" horiz-adv-x="1339" 
d="M481 961q-49 0 -102.5 62t-53.5 114q0 100 279 206q186 62 371 123q49 19 100 19q145 0 254 -119q105 -118 105 -276q0 -12 -1 -25q-8 -152 -243 -346q-174 -144 -432 -281l-226 -102q17 6 328 33q207 11 306 11q49 0 71 -3q31 -4 31 -64q0 -61 -29 -118q-33 -64 -78 -64
q-10 0 -45 9.5t-63 9.5q-234 0 -938 -150q-109 135 -109 219q0 25 10 43q66 107 570 375q516 276 569 345t53 116q0 73 -121 73q-53 0 -112 -16q-76 -20 -246 -90q-162 -66 -221 -98q-13 -6 -27 -6z" />
    <glyph glyph-name="three" unicode="3" horiz-adv-x="1261" 
d="M516 -6q-188 0 -354 61q-162 59 -162 122v3q8 99 139 148q4 -58 78 -91.5t178 -33.5q123 0 228 43q331 135 331 227q0 62 -143 109q-62 20 -254 20q-82 0 -188 -4q34 180 70 180h3q3 -1 6 -1q36 0 173 50q170 64 282 140q146 94 146 176v4q-4 86 -148 86q-119 0 -264 -59
q-158 -66 -268 -175q-6 -6 -15 -6q-36 0 -94.5 66.5t-58.5 114.5q0 18 12 30q43 43 297 146.5t350 115.5q37 4 70 4q164 0 262 -92q86 -82 86 -198q0 -193 -287 -394q193 -110 193 -286q0 -217 -230 -369q-206 -137 -438 -137z" />
    <glyph glyph-name="four" unicode="4" horiz-adv-x="1282" 
d="M1245 803q9 0 9 -21q0 -53 -50 -217q-149 -41 -171 -41q-23 0 -42 -8q-141 -405 -178 -463.5t-145 -58.5q-88 0 -88 46q0 8 2 17q16 62 78 185q34 67 69 135q29 57 29 96q0 37 -29 51q-3 1 -12 1q-44 0 -241 -34q-236 -42 -271 -57q-4 -1 -9 -1q-33 0 -112 73
q-78 73 -78 107q0 6 2 10q78 176 238 397q102 133 205 266q55 72 194 72q103 0 103 -64q0 -30 -26 -71t-124 -148q-104 -114 -151 -178q-76 -104 -86 -184q0 -6 24 -6q70 0 293 41q215 40 215 47q0 20 96 274q103 274 152 317.5t139 43.5q88 0 88 -50q0 -12 -8 -28
l-262 -557q117 8 147 8z" />
    <glyph glyph-name="five" unicode="5" horiz-adv-x="1388" 
d="M1348 1405q86 0 102 -12q37 -29 37 -82q0 -64 -42 -124.5t-89 -60.5q-10 0 -21 4q-32 13 -125 13q-208 0 -645 -53q-100 -179 -100 -254q0 -43 35 -43q7 0 16 2q228 43 309 43q99 0 183 -27q229 -72 229 -246q0 -98 -74 -219q-59 -94 -139 -166q-192 -170 -483 -170
q-183 0 -373 66q-158 53 -168 80q-4 12 -4 26q0 86 184 154q2 -6 6 -10q56 -21 150 -35q129 -21 270 -21q170 0 256 66q70 55 70 137q0 53 -31 92q-20 27 -100 27q-156 0 -465 -84q-180 104 -188 180v2q0 52 319 637q643 78 881 78z" />
    <glyph glyph-name="six" unicode="6" horiz-adv-x="1267" 
d="M436 1122q350 289 752 295q47 -51 47 -166q0 -139 -47 -161q-43 4 -88 4q-267 0 -508 -140q-250 -145 -305 -348q77 68 219 133q121 58 207 80q139 37 243 37q275 0 314 -258q6 -43 6 -80q0 -143 -105 -235q-88 -78 -311 -168q-274 -111 -479 -111q-105 0 -225 29
q-70 16 -110 97t-40 202q0 198 100 405q90 187 330 385zM289 307q0 -67 139 -67q72 0 162 22q190 45 325 111q174 84 174 168q0 110 -159 110q-131 0 -250 -45q-166 -63 -244 -121q-35 -26 -117 -116q-30 -33 -30 -62z" />
    <glyph glyph-name="seven" unicode="7" horiz-adv-x="1099" 
d="M147 1343q74 25 515 88q380 53 447 53q10 0 13 -1q55 -31 55 -185q0 -81 -22 -127q-13 -22 -432 -538q-453 -553 -478 -584q-32 -43 -86 -43q-49 0 -96 36t-47 64q0 41 362.5 521t400.5 494h-1q-20 0 -248 -42q-299 -53 -334 -88q-2 -2 -4 -2q-22 0 -53 93.5t-31 168.5
q0 80 39 92z" />
    <glyph glyph-name="eight" unicode="8" horiz-adv-x="1433" 
d="M94 571q121 185 303 244q-164 72 -164 193q0 147 218 319q98 78 337 121q197 35 402 35q137 0 178 -17q123 -49 123 -143q0 -152 -287 -373q62 -49 107 -166q51 -129 57 -284v-5q0 -159 -395 -323q-336 -139 -621 -172q-35 -4 -65 -4q-287 0 -287 340q0 92 94 235z
M930 991q192 80 223 221q1 6 1 10q0 44 -110 44q-126 0 -292 -54q-201 -67 -201 -170q0 -61 67 -122q181 18 312 71zM526 272q74 0 166 33q56 23 111 47q69 29 145 94q96 84 96 150q0 57 -77 92q-33 14 -86 14q-148 0 -400 -102q-65 -27 -112 -84t-47 -113q0 -51 43 -81
q69 -50 161 -50z" />
    <glyph glyph-name="nine" unicode="9" horiz-adv-x="1249" 
d="M1067 473q-117 -197 -275 -313q-213 -156 -493 -160q-47 51 -47 135q0 98 47 121q36 -4 73 -4q232 0 406 160q162 145 223 370q-63 -90 -217 -166q-102 -49 -186 -71q-76 -21 -156 -21q-176 0 -297 84q-129 90 -129 236q0 18 2 37q18 151 86 233q84 100 301 189
q295 118 543 118q115 0 219 -24q133 -31 133 -252q0 -199 -115 -432q-106 -217 -118 -240zM1024 1108q0 43 -58.5 74.5t-144.5 31.5q-88 0 -172 -34q-260 -107 -287 -119q-135 -72 -135 -152q0 -153 240 -153q84 0 104 10q281 129 432 295q21 22 21 47z" />
    <glyph glyph-name="colon" unicode=":" horiz-adv-x="530" 
d="M294 380q107 -45 107 -139q0 -33 -26 -78l-29 -40q-47 -51 -90 -81q-64 -40 -117 -41q-38 0 -66 15q-69 46 -70 125q0 72 49 122l74 71l8 8q55 42 106 43q28 0 54 -5zM388 929q107 -45 107 -139q0 -33 -26 -78l-29 -40q-47 -51 -90 -81q-64 -40 -117 -41q-38 0 -66 15
q-69 46 -70 125q0 72 49 122l74 71l8 8q55 42 106 43q28 0 54 -5z" />
    <glyph glyph-name="semicolon" unicode=";" horiz-adv-x="530" 
d="M388 929q107 -45 107 -139q0 -33 -26 -78l-29 -40q-47 -51 -90 -81q-64 -40 -117 -41q-38 0 -66 15q-69 46 -70 125q0 72 49 122l74 71l8 8q55 42 106 43q28 0 54 -5zM292 372q107 -45 107 -139q0 -33 -26 -78q-29 -50 -94 -123q-58 -88 -125 -121q-17 -4 -34 -4
q-44 0 -81 26q60 59 74 104q1 7 1 13q0 67 -117 67q0 72 53 138l74 71l8 8q55 42 106 43q28 0 54 -5z" />
    <glyph glyph-name="semicolon" unicode="&#x37e;" horiz-adv-x="530" 
d="M388 929q107 -45 107 -139q0 -33 -26 -78l-29 -40q-47 -51 -90 -81q-64 -40 -117 -41q-38 0 -66 15q-69 46 -70 125q0 72 49 122l74 71l8 8q55 42 106 43q28 0 54 -5zM292 372q107 -45 107 -139q0 -33 -26 -78q-29 -50 -94 -123q-58 -88 -125 -121q-17 -4 -34 -4
q-44 0 -81 26q60 59 74 104q1 7 1 13q0 67 -117 67q0 72 53 138l74 71l8 8q55 42 106 43q28 0 54 -5z" />
    <glyph glyph-name="less" unicode="&#x3c;" horiz-adv-x="1126" 
d="M551 758q92 -10 250 -62q151 -49 155 -62t49 -77q39 -55 39 -80q0 -35 -73 -35q-101 0 -417.5 84t-416.5 84q-1 -3 -3 -3q-12 0 -62 59q-62 71 -62 112q0 17 10 25q19 14 416 164q422 159 496 159q10 0 12 -4q4 -12 45 -65t41 -80q0 -29 -37 -43q-141 -62 -442 -176z" />
    <glyph glyph-name="equal" unicode="=" horiz-adv-x="983" 
d="M334 688q346 35 491 35q86 0 90.5 -12.5t45.5 -65.5t41 -80q0 -28 -37 -43q-68 -28 -422 -51q-245 -16 -355 -16q-41 0 -63 2q-1 -3 -4 -3q-12 0 -61 58q-62 72 -62 113q0 16 9 23t327 40zM387 1044q346 35 492 35q86 0 90 -12t45 -65.5t41 -79.5q0 -29 -37 -43
q-68 -29 -422 -52q-245 -16 -355 -16q-41 0 -63 2q-1 -3 -3 -3q-12 0 -62 59q-62 71 -62 112q0 16 9.5 23.5t326.5 39.5z" />
    <glyph glyph-name="greater" unicode="&#x3e;" horiz-adv-x="1005" 
d="M24 1094q1 1 4 1q38 0 436 -97q429 -105 439 -136q4 -12 45 -65.5t41 -79.5q0 -29 -37 -43q-696 -289 -808 -289h-7q-1 -3 -3 -3q-12 0 -62 59q-62 71 -62 112q0 16 9 23.5t161 64.5q182 70 311 104q-157 50 -348 101q-1 -3 -3 -3q-11 0 -63 81q-63 96 -63 143
q0 18 10 27z" />
    <glyph glyph-name="question" unicode="?" horiz-adv-x="1220" 
d="M172 770q86 49 164 84q184 88 287 104q141 19 282 39q113 21 160 68q29 29 29 70q0 67 -72 120q-82 60 -223 60q-33 0 -70 -4q-125 -13 -321 -72q-170 -51 -211 -76q-4 -2 -9 -2q-28 0 -74 47t-46 76q0 14 14 19q117 51 235 102q214 79 415 79q23 0 46 -1
q183 -8 355 -119q159 -102 170 -184q4 -31 4 -60q0 -250 -332 -334q-8 -2 -316 -51q-233 -39 -296.5 -79t-124.5 -140q-133 71 -133 128q0 6 1 11q15 62 66 115zM294 380q107 -45 107 -139q0 -33 -26 -78l-29 -40q-47 -51 -90 -81q-64 -40 -117 -41q-38 0 -66 15
q-69 46 -70 125q0 72 49 122l74 71l8 8q55 42 106 43q28 0 54 -5z" />
    <glyph glyph-name="at" unicode="@" horiz-adv-x="1548" 
d="M1358 1004q0 106 -113 170q-92 51 -209 51q-282 0 -500.5 -235.5t-218.5 -518.5q0 -109 105 -166q86 -47 205 -47q252 0 364 68q23 6 58 6q77 0 147 -25q78 -28 78 -65q0 -9 -4 -17q-97 -125 -348 -182q-183 -43 -406 -43q-219 0 -350 76q-164 96 -164 297q0 264 154 528
q149 258 387 420q250 172 514 172q227 0 388 -141.5t161 -368.5q0 -111 -54 -246q-55 -143 -118 -170q-170 -147 -488 -147q-78 0 -164 10q-41 4 -84 10q-88 6 -161 70q-77 69 -77 164q0 9 1 18q14 172 164 301q125 111 245 111q16 0 31 -2q117 -15 190.5 -84.5t73.5 -179.5
q0 -56 -20 -117q22 -2 41 -2q102 0 139 72q33 61 33 213zM690 741q0 -49 90 -49h5q116 0 116 90q0 68 -72 76q-11 1 -21 1q-84 0 -110 -77q-8 -24 -8 -41z" />
    <glyph glyph-name="A" unicode="A" horiz-adv-x="1468" 
d="M181 0q-197 20 -197 131q0 31 16 66q105 227 617 731q505 497 626 497h3q9 -1 18 -1q18 0 38 3q32 3 38 3q51 0 119 -78q26 -31 26 -154q0 -237 -80 -678q-78 -422 -110 -438q-39 -21 -109 -21q-86 0 -104 37q-6 15 -6 39q0 56 30 150q-92 24 -202 24q-160 0 -330 -49
q-144 -41 -221 -90zM680 549l377 24q98 52 98 74q0 4 15.5 117t15.5 156q0 28 -6 30q-22 11 -47 11q-96 0 -240 -150q-78 -82 -213 -262z" />
    <glyph glyph-name="B" unicode="B" horiz-adv-x="1433" 
d="M1022 1503q254 0 346 -37q123 -49 123 -143q0 -152 -287 -373q62 -49 107 -166q51 -129 57 -284v-5q0 -159 -395 -323q-336 -139 -621 -172q-26 -4 -53 -4q-131 0 -219 71.5t-88 194.5q0 35 8 74q230 520 451 991q119 176 571 176zM907 1034q191 78 224 219q1 5 1 9
q0 47 -114 47q-127 0 -289 -56l-133 -292q180 18 311 73zM539 274q76 0 264 78q70 29 145 94q97 84 97 150q0 57 -78 92q-35 17 -96 17q-156 0 -420 -91q-82 -153 -82 -227q0 -22 8 -35q55 -78 162 -78z" />
    <glyph glyph-name="C" unicode="C" horiz-adv-x="1265" 
d="M254 555q0 -121 78 -219q53 -66 188 -66t242 62q104 62 104 147q0 10 -2 21l246 98q51 -74 51 -178q0 -64 -27 -109q-84 -139 -299 -233q-204 -90 -403 -90q-68 0 -125 12q-145 33 -227 182q-74 137 -74 322q0 203 88 348q170 281 274 397q242 267 504 267q207 0 351 -97
q133 -90 133 -198q-17 -74 -110 -134q-76 -50 -118 -50q-10 0 -18 3q-61 240 -253 240q-17 0 -34 -2q-110 -10 -291 -219q-151 -174 -250 -354q-28 -76 -28 -150z" />
    <glyph glyph-name="D" unicode="D" horiz-adv-x="1486" 
d="M278 25q-59 -13 -106 -13q-170 0 -170 162q0 49 14 96q409 1041 426 1041q52 82 291 139q169 42 229 42q7 0 13 -1q317 -33 465 -107q181 -91 181 -253q0 -68 -32 -148q-125 -317 -532 -655q-121 -101 -299 -170q-170 -64 -480 -133zM1343 1065q-10 113 -106 158
q-52 24 -114 24q-17 0 -34 -2q-213 -20 -227 -24q-112 -27 -182 -123q-45 -64 -287 -672q-2 -8 -2 -16q0 -45 74 -45q22 0 51 4q72 12 385 229q172 119 310 267q132 142 132 196v4z" />
    <glyph glyph-name="E" unicode="E" horiz-adv-x="1347" 
d="M0 172q64 209 256 664q248 587 342 614q107 31 348 70q273 45 396 45q69 0 75 -17q27 -59 27 -127q0 -75 -43 -102q-33 -21 -348 -55q-303 -35 -307.5 -50.5t-51.5 -123.5l-40 -91l5 -8q0 3 185 35q201 35 282 35q50 0 54 -12.5t45 -65.5t41 -80q0 -29 -37 -43
q-55 -22 -389 -119q-322 -92 -324 -94q-8 -8 -147 -319q506 215 655 215q29 0 41 -11q41 -36 70.5 -98.5t29.5 -107.5q0 -35 -18 -47q-43 -29 -459 -158q-393 -122 -458 -122q-6 0 -9 1q-225 63 -225 150q0 10 4 22z" />
    <glyph glyph-name="F" unicode="F" horiz-adv-x="1347" 
d="M0 172q64 209 256 664q248 587 342 614q107 31 348 70q273 45 396 45q69 0 75 -17q27 -59 27 -127q0 -75 -43 -102q-33 -21 -348 -55q-303 -35 -307.5 -50.5t-51.5 -123.5l-40 -92v-7q0 2 190 35q201 35 282 35q50 0 54 -12.5t45 -65.5t41 -80q0 -29 -37 -43
q-55 -22 -389 -119q-322 -92 -324 -94q-8 -8 -289 -608q-34 -35 -81 -35q-58 0 -104 43t-46 96q0 15 4 29z" />
    <glyph glyph-name="G" unicode="G" horiz-adv-x="1613" 
d="M741 817q45 14 105 29q370 31 614 115q17 6 33 6q96 0 156 -179q-170 -155 -197 -163q-70 -21 -164 -162q-123 -189 -213 -273q-203 -188 -475 -188q-158 0 -311 64q-129 53 -189 116q-96 107 -96 279q0 178 102 407q76 172 150 265q176 221 467 331q206 79 392 79
q17 0 34 -1q153 -4 285 -133q55 -53 100 -129q-33 -35 -55 -57q-62 -66 -99 -101q-20 -14 -43 -30q1 3 1 6q0 42 -189 166q-154 -11 -225 -31q-60 -16 -177 -76q-135 -67 -223 -141q-67 -58 -162 -170q-110 -133 -110 -271q0 -139 113.5 -233t291.5 -94q140 0 291 164
q135 145 135 229q-86 -2 -254 -33q-26 -4 -51 -4q-80 0 -127 47q-41 37 -41 82q0 15 6 23q17 26 125 61z" />
    <glyph glyph-name="H" unicode="H" horiz-adv-x="1300" 
d="M576 661q-53 -107 -113 -231q-65 -190 -186 -364q-64 -70 -91 -70q-67 0 -118 27q-66 32 -66 98q0 37 23 84q36 74 336 640q326 589 384 646q18 18 43 18q51 0 112 -73q56 -68 56 -97q0 -4 -4 -4h-4q-31 0 -255 -441h3q315 32 464 35q65 154 130 310q53 168 94 178
q72 16 123 16q108 0 108 -66q0 -7 -1 -16q-21 -114 -70 -235q-39 -94 -53 -109q-92 -186 -185 -372q-206 -414 -225 -496q-39 -47 -80 -94q-34 -39 -80 -39q-10 0 -20 2q-78 12 -82 115q120 281 240 566q-69 -6 -154 -12q-218 -14 -329 -16z" />
    <glyph glyph-name="I" unicode="I" horiz-adv-x="1349" 
d="M672 1475q118 5 300 5t429 -5q45 -66 45 -185q0 -102 -37 -119q-79 -33 -248 -33q-26 0 -55 1q-427 -766 -427 -817q0 -2 1 -3q6 -4 29 -4q65 0 241 29q-6 -74 -26 -129q-50 -131 -162 -141q-164 -15 -762 -74q20 84 45 145q55 146 111 150h102q64 0 97.5 27.5t199.5 338
t240 486.5v2q0 14 -78 14q-111 0 -332 -24q45 98 92 196q78 135 195 140z" />
    <glyph glyph-name="J" unicode="J" horiz-adv-x="1470" 
d="M297 477q0 -133 39 -158q90 -55 198 -55q115 0 195 80q27 27 156 336q53 127 122 303q9 12 9 23q0 19 -29 19q-6 0 -12 -1q-22 -2 -41 -2q-148 0 -148 96q0 41 25 94q78 170 434 181q96 2 145 2q119 0 152 -15.5t33 -66.5v-41q-2 -31 -2 -51q0 -31 -47 -78
q-55 -55 -131 -55q-13 0 -27 2h-1q-25 0 -56 -74q1 -4 1 -9q0 -83 -166 -428q-175 -366 -237 -415q-196 -160 -395 -160q-141 0 -283 82q-73 51 -149 102q-74 41 -74 211q0 88 20 189q17 90 37 125q43 78 115 78q55 0 101 -38q39 -32 39 -57q0 -4 -1 -8q-22 -65 -22 -211z
" />
    <glyph glyph-name="K" unicode="K" horiz-adv-x="1789" 
d="M815 1563q70 0 136 -33q66 -35 66 -78q0 -5 -1 -10q-78 -209 -147 -369q7 5 15 5q12 0 26 -13q1 -1 3 -1q35 0 386 196q395 219 403 222t19 3q45 0 110.5 -42t85.5 -91q1 -2 1 -5q0 -78 -959 -561q-21 -26 -21 -38q0 -11 13 -11q30 0 280 -223q254 -229 260 -285v-4
q0 -45 -91 -99q-95 -56 -146 -56q-17 0 -17 10v3q0 50 -639 515q-243 -481 -319 -573q-21 -25 -51 -25q-66 0 -153 84q-76 74 -76 98q0 4 1 6q74 99 131 172q-10 78 -24 123q-2 6 -2 13q0 34 52 80q62 55 138 79q62 21 258 435q86 182 201 450q10 23 61 23z" />
    <glyph glyph-name="L" unicode="L" horiz-adv-x="1091" 
d="M838 1509q51 0 112 -73q56 -68 56 -97q0 -4 -4 -4h-4q-45 0 -515 -925q-16 -33 -16 -54q0 -24 31 -24q16 0 86 12q77 12 137 16q78 5 112 82q15 31 19 74q57 19 123 19q123 0 155 -43q5 -7 5 -15q0 -35 -54 -137q-37 -72 -73 -143q-21 -45 -377 -119l-402 -78
q-16 -4 -43 -4q-67 0 -118 27q-66 32 -66 98q0 37 23 84q36 74 356 620q356 609 414 666q18 18 43 18z" />
    <glyph glyph-name="M" unicode="M" horiz-adv-x="2037" 
d="M819 1405q55 0 131 -12q60 -9 60 -103q0 -49 -15 -98q-15 -45 -26 -45h-3q-13 0 -13 -202q0 -126 5 -331q549 629 983 910q242 -119 242 -148q0 -6 -12 -8q-49 -6 -275 -625q-215 -581 -233 -686q-6 -30 -43 -30q-92 0 -260 120q-11 7 -11 33q0 119 175 557l-41 49
q-353 -323 -394 -401q-102 -192 -141 -238q-53 -59 -139 -59q-21 0 -47 2q-135 12 -135 135q0 58 36 209q33 193 41 287q4 24 4 45q0 86 -86 86q-32 0 -210 -363q-207 -423 -224 -448q-22 -37 -55 -37q-47 0 -87 63.5t-40 145.5q0 37 10 74q29 104 307 565
q267 442 322 497.5t174 55.5z" />
    <glyph glyph-name="N" unicode="N" horiz-adv-x="1628" 
d="M614 1384q19 2 63 25t66 23q25 0 43 -23q58 -68 136 -371q69 -268 110 -530q2 -8 4 -8q23 0 226.5 481t236.5 485q18 3 38 3q49 0 109 -17q99 -27 99 -76q0 -35 -311 -647q-296 -578 -296 -620q0 -2 1 -3q2 -4 2 -8q0 -16 -28 -32.5t-67 -16.5q-102 0 -153 123
q-12 29 -115 403q-79 285 -122 285h-1q-45 -4 -73 -51q-17 -31 -33 -64q-15 -22 -150 -366q-137 -350 -137 -379q0 -20 -55 -20q-74 0 -131 38q-68 47 -68 129v9q125 307 250 612q264 604 356 616z" />
    <glyph glyph-name="O" unicode="O" horiz-adv-x="1556" 
d="M1264 266q-99 -127 -344 -203q-205 -63 -404 -63q-219 0 -350 76q-164 96 -164 297q0 266 151.5 526t389.5 422q250 172 514 172q227 0 388 -141.5t161 -368.5q0 -276 -342 -717zM422 305q86 -47 205 -47q209 0 470 268.5t261 477.5q0 106 -113 170q-92 51 -209 51
q-282 0 -500.5 -235.5t-218.5 -518.5q0 -109 105 -166z" />
    <glyph glyph-name="P" unicode="P" horiz-adv-x="1609" 
d="M1040 1524q41 8 111 8q180 0 324 -55q194 -76 245 -232q5 -14 5 -31q0 -110 -203 -284q-193 -166 -459 -297q-283 -139 -489 -158q-13 -2 -119 -186q-117 -203 -144 -232q-63 -69 -133 -69q-71 0 -131 67q-51 58 -51 109q0 18 12 24q133 68 334 463q100 215 199 430
q18 35 20 121q2 96 13 133q28 95 466 189zM723 776q64 0 207 48t209 94q94 65 190 145q139 116 139 158q0 4 -2 8q-22 51 -237 51q-229 0 -320 -84q-22 -22 -118 -199q-95 -174 -95 -207v-4q2 -10 27 -10z" />
    <glyph glyph-name="Q" unicode="Q" horiz-adv-x="1576" 
d="M1343 375q113 -103 119 -189v-6q0 -46 -62 -98q-67 -55 -116 -55q-27 0 -31 24q-10 66 -67 139q-121 -92 -328 -145q-180 -45 -342 -45q-219 0 -350 76q-164 96 -164 297q0 264 154 528q149 258 387 420q250 172 514 172q227 0 388 -141.5t161 -368.5q0 -248 -263 -608z
M1012 582q34 -13 94 -45q252 262 252 467q0 106 -113 170q-92 51 -209 51q-282 0 -500.5 -235.5t-218.5 -518.5q0 -109 105 -166q86 -47 205 -47q139 0 327 141q-65 45 -145 95q-4 6 -4 16q0 33 24 59q33 31 88 31q41 0 95 -18z" />
    <glyph glyph-name="R" unicode="R" horiz-adv-x="1609" 
d="M696 786q2 -10 27 -10q64 0 207 48t209 94q94 65 190 145q139 116 139 158q0 4 -2 8q-22 51 -237 51q-229 0 -320 -84q-22 -22 -118 -199q-95 -174 -95 -207v-4zM1000 602q448 -207 462 -416v-6q0 -46 -62 -98q-67 -55 -116 -55q-26 0 -31 24q-26 193 -479 465
q-110 -33 -200 -41q-13 -2 -119 -186q-117 -203 -144 -232q-63 -69 -133 -69q-71 0 -131 67q-51 58 -51 109q0 18 12 24q133 68 334 463q100 215 199 430q18 35 20 121q2 96 13 133q28 95 466 189q41 8 111 8q180 0 324 -55q194 -76 245 -232q5 -14 5 -31q0 -118 -226 -305
q-217 -178 -499 -307z" />
    <glyph glyph-name="S" unicode="S" horiz-adv-x="1441" 
d="M1509 1229q0 -74 -58 -127t-122 -53q-96 0 -108 114q-4 43 -91 78t-188 35q-100 0 -164 -39l-196 -98q-123 -70 -123 -139v-9q6 -59 203 -59q36 0 256 10q24 1 47 1q411 0 411 -357q0 -39 -8 -103q-20 -157 -246 -315q-241 -168 -499 -168q-443 0 -623 254q-4 4 -4 12
q0 39 94 106.5t148 67.5q28 0 32 -22q25 -137 459 -164q17 -1 34 -1q135 0 210 73q76 73 108 247q1 5 1 10q0 61 -148 93q-127 26 -315 26q-158 0 -201 -14q-16 -6 -41 -6q-82 0 -164 43q-90 46 -90 108v3q8 161 80 274q55 88 160 164q90 55 178 110q59 39 200 70
q158 37 310 37q348 0 440 -188q18 -37 18 -74z" />
    <glyph glyph-name="T" unicode="T" horiz-adv-x="1053" 
d="M1225 1473q51 -7 51 -154q0 -105 -20.5 -118t-432.5 -56q-91 -76 -91 -88q0 -1 1 -2q-96 -72 -274 -492l-176 -450q-101 -113 -162 -113q-66 0 -101 113q-2 6 -2 15q0 94 187 503q201 440 232 440h1q4 4 8 6q-4 8 -18 23q-6 4 -14 12q-78 -6 -138 -12q-145 -19 -182 -45
q-6 -4 -10 -4q-49 0 -49 227q0 37 2 47q237 39 475 78q463 72 651 72q37 0 62 -2z" />
    <glyph glyph-name="U" unicode="U" horiz-adv-x="1603" 
d="M608 1509q53 0 107 -36q45 -35 45 -60q0 -8 -6 -12q-37 -19 -220 -397q-196 -408 -196 -555q0 -82 108 -82q129 0 316.5 69.5t187.5 113.5t232 445q223 387 284 463q19 23 56 23q57 0 126.5 -51.5t69.5 -83.5q0 -15 -14 -19q-103 -35 -340 -579q-225 -519 -225 -666v-8
q-70 -15 -134 -15q-147 0 -153 80q-2 27 -49 27q-105 0 -508 -166q-23 -10 -47 -10q-88 0 -166 101.5t-78 221.5q0 25 4 47q12 78 209 498q55 121 266 559q45 92 125 92z" />
    <glyph glyph-name="V" unicode="V" horiz-adv-x="1300" 
d="M81 1275q0 50 77 95q73 43 133 43q14 0 20 -4q26 -19 26 -633q0 -119 -1 -260q114 262 241 424q105 137 275 272q188 144 377 287l163 -156q-75 -141 -106 -172q-68 -67 -262 -131q-125 -41 -305 -305q-131 -188 -279 -475q-65 -129 -129 -260q-272 131 -295 139
q-8 2 -8 17q0 57 66 123q28 28 28 393q0 465 -20 590q-1 6 -1 13z" />
    <glyph glyph-name="W" unicode="W" horiz-adv-x="1949" 
d="M303 1352q250 -54 250 -111q0 -6 -4 -12q-27 -43 -101.5 -279.5t-74.5 -275.5q0 -4 1 -4t3 2q176 198 352 397q237 267 267 267q2 0 3 -1q6 -4 21 -4q57 0 217 62l8 -746q162 215 324 428q314 408 346 408h2q172 -86 172 -140q0 -16 -398 -579q-373 -529 -373 -587
q0 -3 1 -5q2 -4 2 -8q0 -60 -322 -123q-22 604 -82 852q0 4 -3 4q-25 0 -266 -327q-267 -363 -337 -513q-22 -49 -129 -49q-135 0 -166 82q-8 23 -8 70q0 198 135 706q131 486 160 486z" />
    <glyph glyph-name="X" unicode="X" horiz-adv-x="1654" 
d="M889 942q2 -4 8 -4q41 0 338 248t317 248q4 0 31 2h43q145 0 145 -72q0 -29 -22 -70q-51 -90 -395 -331q-318 -225 -318 -266v-1q6 -67 8 -75q4 -19 25 -56q121 -225 180 -270q10 -8 10 -25q0 -45 -76.5 -118.5t-121.5 -73.5q-10 0 -17 4q-49 35 -139 176
q-100 150 -123 242q0 1 -1 1q-16 0 -275 -206q-283 -225 -330 -295q-8 -10 -25 -10q-38 0 -92.5 47t-54.5 90q0 16 8 29q29 43 287 276q270 244 287 264q41 47 41 123q0 47 -17 74l-102 160q-86 135 -86 159q0 31 65.5 93.5t112.5 62.5q16 0 27 -8q75 -60 165 -227
q48 -95 97 -191z" />
    <glyph glyph-name="Y" unicode="Y" horiz-adv-x="1298" 
d="M410 795q0 14 -9 16q-28 10 -139 199q-123 204 -123 301q0 69 53 119q50 40 101 40q47 0 51 -36q4 -50 125 -259.5t149 -209.5q2 0 5 2q81 147 344 409q206 207 303 207q75 0 114 -100q7 -15 7 -31q0 -59 -67 -130t-169 -126q-156 -84 -514 -532q-317 -398 -453 -631
q-12 -21 -32 -21q-43 0 -98.5 76t-55.5 121q0 18 14 20q41 7 213 263q72 106 164 253q17 31 17 50z" />
    <glyph glyph-name="Z" unicode="Z" horiz-adv-x="1374" 
d="M360 1286l123 57q754 164 867 164h10q47 -4 80 -72.5t33 -140.5q0 -55 -21.5 -79.5t-425.5 -358.5q-389 -324 -412 -364q-14 -25 -14 -46q0 -40 41 -40q10 0 23 4q102 30 204 61q181 51 238 51q18 0 25 -6q28 -29 61 -82q43 -69 43 -112q0 -31 -20.5 -42.5t-489.5 -127.5
q-436 -109 -446 -152q-5 -16 -23 -16q-51 0 -154 84q-95 77 -95 113q0 4 1 7q33 129 477 545q424 397 487 397h3q6 -1 11 -1q34 0 34 34q0 13 -4 25q-127 -31 -225 -55q-234 -64 -275 -101q-8 -6 -18 -6q-41 0 -95.5 82t-54.5 141q0 25 12 37z" />
    <glyph glyph-name="bracketleft" unicode="[" horiz-adv-x="1095" 
d="M369 328q280 105 360 105q9 0 15 -1q47 -8 75.5 -66.5t28.5 -119.5q0 -53 -23 -68q-43 -28 -299 -106q-233 -73 -292 -73q-8 0 -13 1q-225 63 -225 150q0 10 4 22q64 209 256 664q248 587 342 614q301 84 475 84q68 0 76 -21q27 -59 27 -127q0 -75 -43 -102
q-33 -20 -215 -39q-168 -16 -172.5 -31.5t-51.5 -123.5q-39 -91 -39 -98v-1q-8 -8 -286 -663z" />
    <glyph glyph-name="backslash" unicode="\" horiz-adv-x="956" 
d="M10 1210q0 31 65.5 93.5t112.5 62.5q17 0 27 -8q76 -60 166 -228q47 -94 96 -190q37 -113 215 -418q168 -286 199 -309q10 -8 10 -25q0 -45 -77 -118.5t-122 -73.5q-10 0 -16 4q-43 31 -253 413t-235 478l-102 160q-86 135 -86 159z" />
    <glyph glyph-name="bracketright" unicode="]" horiz-adv-x="1124" 
d="M834 1229q-312 -111 -451 -111h-14q-33 2 -33 39q0 49 53 139q47 84 80 105q43 29 252 96q187 61 244 61q10 0 16 -2q225 -63 225 -147q0 -12 -4 -25q-69 -225 -256 -677q-245 -603 -340 -629q-100 -29 -309 -53q-186 -25 -258 -25q-45 0 -45 117q0 125 49 155
q33 21 227 39q183 19 187 33t121 295q108 261 108 270q6 9 148 320z" />
    <glyph glyph-name="asciicircum" unicode="^" horiz-adv-x="804" 
d="M792 1204q70 -112 70 -225q0 -18 -2 -39q-41 -59 -118 -105.5t-132 -46.5q-24 0 -41 11q1 7 1 16q0 45 -27 121q-29 80 -40.5 86t-25.5 6q-94 0 -319 -217q-72 41 -111 111q-32 57 -32 112q0 12 1 23q371 340 464 340h3q10 -1 21 -1q17 0 36 2q31 3 37 3q52 0 119 -78
q76 -88 96 -119z" />
    <glyph glyph-name="underscore" unicode="_" horiz-adv-x="1368" 
d="M424 -16q444 18 700 18q250 0 255 -15.5t46 -68.5t41 -80q0 -37 -53 -47q-111 -24 -670 -27q-138 -1 -246 -1q-297 0 -366 8q-1 -3 -4 -3q-12 0 -61 58q-62 72 -62 113q0 16 8 22t412 23z" />
    <glyph glyph-name="grave" unicode="`" horiz-adv-x="370" 
d="M4 1137q-4 18 -4 39q0 75 51 127q74 73 82 79q53 43 103 43q22 0 45 -8q116 -45 116 -145q0 -29 -10 -52.5t-16 -23.5t-37 -29q-43 -37 -43 -80q0 -59 80 -122q-20 -1 -39 -1q-270 0 -328 173z" />
    <glyph glyph-name="a" unicode="a" horiz-adv-x="1174" 
d="M145 0q-158 16 -158 105q0 25 13 53q84 181 493 584q404 398 501 398h3q7 -1 14 -1q14 0 30 3q26 2 31 2q41 0 95 -62q21 -25 21 -124q0 -189 -64 -542q-63 -338 -88 -350q-31 -17 -87 -17q-69 0 -84 29q-4 12 -4 32q0 44 24 120q-74 19 -162 19q-128 0 -264 -39
q-115 -33 -177 -72zM544 439l301 19q79 42 79 60q0 3 12.5 93.5t12.5 124.5q0 22 -5 24q-18 9 -38 9q-77 0 -192 -120q-62 -66 -170 -210z" />
    <glyph glyph-name="b" unicode="b" horiz-adv-x="1147" 
d="M818 1202q203 0 277 -29q98 -39 98 -115q0 -121 -229 -298q49 -39 85 -133q41 -103 46 -227v-4q0 -127 -316 -258q-269 -112 -497 -138q-21 -3 -42 -3q-105 0 -175.5 57t-70.5 156q0 28 6 59q184 416 361 793q95 140 457 140zM726 827q153 63 179 175q1 4 1 8
q0 37 -91 37q-102 0 -231 -45l-107 -233q144 14 249 58zM432 219q60 0 211 63q56 23 116 75q77 67 77 120q0 45 -62 73q-28 14 -77 14q-125 0 -336 -73q-65 -122 -65 -181q0 -18 6 -28q44 -63 130 -63z" />
    <glyph glyph-name="c" unicode="c" horiz-adv-x="1012" 
d="M203 444q0 -97 63 -175q42 -53 150 -53t194 50q83 49 83 117q0 8 -2 17l197 78q41 -59 41 -142q0 -51 -22 -87q-67 -111 -239 -187q-163 -72 -322 -72q-55 0 -100 10q-116 26 -182 146q-59 109 -59 257q0 163 70 279q136 224 220 317q193 214 403 214q165 0 281 -78
q106 -72 106 -158q-14 -59 -88 -107q-61 -40 -94 -40q-8 0 -15 2q-49 192 -202 192q-14 0 -27 -2q-88 -8 -233 -175q-121 -139 -200 -283q-23 -61 -23 -120z" />
    <glyph glyph-name="d" unicode="d" horiz-adv-x="1189" 
d="M223 20q-47 -10 -85 -10q-136 0 -136 129q0 39 11 77q327 833 341 833q42 65 233 111q135 34 183 34q6 0 10 -1q254 -27 372 -86q145 -73 145 -202q0 -55 -25 -119q-100 -253 -426 -524q-97 -80 -239 -136q-136 -51 -384 -106zM1075 852q-8 90 -85 126q-42 20 -91 20
q-14 0 -27 -2q-171 -16 -182 -19q-90 -22 -146 -99q-36 -51 -229 -537q-2 -7 -2 -13q0 -36 59 -36q18 0 41 3q58 10 308 183q138 96 248 214q106 114 106 157v3z" />
    <glyph glyph-name="e" unicode="e" horiz-adv-x="1078" 
d="M0 138q51 167 205 531q198 469 274 491q85 25 278 56q218 36 317 36q55 0 60 -14q21 -47 21 -101q0 -60 -34 -82q-26 -17 -278 -44q-243 -28 -246.5 -40.5t-41.5 -98.5l-32 -73l4 -6q0 2 148 28q161 28 226 28q40 0 43 -10t36 -52.5t33 -64.5q0 -23 -30 -34
q-44 -18 -311 -95q-257 -74 -259 -75q-6 -7 -118 -256q405 172 524 172q24 0 33 -8q33 -29 56.5 -79t23.5 -86q0 -28 -14 -38q-35 -23 -367 -126q-315 -98 -367 -98q-5 0 -7 1q-180 50 -180 120q0 8 3 18z" />
    <glyph glyph-name="f" unicode="f" horiz-adv-x="1078" 
d="M0 138q51 167 205 531q198 469 274 491q85 25 278 56q218 36 317 36q55 0 60 -14q21 -47 21 -101q0 -60 -34 -82q-26 -17 -278 -44q-243 -28 -246.5 -40.5t-41.5 -98.5l-32 -74v-5q0 1 152 28q161 28 226 28q40 0 43 -10t36 -52.5t33 -64.5q0 -23 -30 -34
q-44 -18 -311 -95q-257 -74 -259 -75q-6 -7 -231 -487q-27 -28 -65 -28q-46 0 -83 34.5t-37 76.5q0 12 3 24z" />
    <glyph glyph-name="g" unicode="g" horiz-adv-x="1290" 
d="M593 654q36 11 84 23q296 25 491 92q13 5 26 5q77 0 125 -144q-136 -124 -158 -130q-56 -17 -131 -130q-98 -151 -170 -218q-163 -150 -380 -150q-127 0 -249 51q-103 42 -151 93q-77 85 -77 223q0 142 82 325q60 138 120 212q140 177 373 265q165 63 314 63h27
q122 -4 228 -107q44 -42 80 -103q-26 -28 -44 -46q-50 -52 -79 -80q-16 -12 -35 -24q1 2 1 4q0 34 -151 133q-123 -9 -180 -25q-48 -12 -142 -60q-108 -54 -178 -113q-54 -47 -130 -136q-88 -107 -88 -217q0 -111 91 -186.5t233 -75.5q112 0 233 132q108 116 108 183
q-69 -2 -203 -27q-21 -3 -41 -3q-64 0 -101 38q-33 29 -33 65q0 12 5 19q13 21 100 49z" />
    <glyph glyph-name="h" unicode="h" horiz-adv-x="1040" 
d="M461 529q-43 -86 -91 -185q-52 -152 -148 -291q-52 -56 -73 -56q-54 0 -95 21q-52 26 -52 79q0 29 18 67q29 59 269 512q261 471 307 517q14 14 34 14q41 0 90 -58q45 -55 45 -78q0 -3 -3 -3h-4q-24 0 -204 -353h3q252 26 371 28q52 123 104 248q42 135 75 143
q58 12 99 12q86 0 86 -52q0 -6 -1 -13q-17 -91 -56 -188q-31 -75 -42 -87l-148 -298q-165 -331 -180 -397q-31 -37 -64 -75q-27 -31 -64 -31q-8 0 -16 1q-63 10 -66 92q96 225 192 453q-55 -5 -123 -9q-174 -12 -263 -13z" />
    <glyph glyph-name="i" unicode="i" horiz-adv-x="1079" 
d="M538 1180q94 4 240 4q145 0 343 -4q36 -53 36 -148q0 -82 -30 -95q-63 -27 -198 -27q-21 0 -44 1q-342 -613 -342 -653q0 -2 1 -3q5 -3 23 -3q52 0 193 23q-5 -59 -21 -103q-40 -105 -129 -113q-132 -12 -610 -59q16 67 36 116q44 117 89 120h81q52 0 78.5 22
t159.5 270.5t192 389.5v1q0 11 -62 11q-89 0 -266 -19q36 79 74 157q62 108 156 112z" />
    <glyph glyph-name="j" unicode="j" horiz-adv-x="1176" 
d="M237 382q0 -107 31 -127q72 -44 159 -44q92 0 156 64q21 22 125 269q42 102 97 242q7 10 7 19q0 15 -23 15q-5 0 -9 -1q-18 -1 -33 -1q-119 0 -119 76q0 33 20 76q63 136 348 144q76 2 116 2q95 0 121.5 -12.5t26.5 -53.5v-32q-2 -25 -2 -41q0 -25 -38 -63
q-44 -44 -104 -44q-11 0 -22 2h-1q-20 0 -45 -59q1 -3 1 -7q0 -67 -133 -343q-140 -293 -189 -332q-157 -128 -316 -128q-113 0 -227 66q-58 41 -119 81q-59 33 -59 169q0 71 16 151q14 72 30 100q34 63 92 63q44 0 80 -31q32 -25 32 -45q0 -3 -1 -7q-18 -52 -18 -168z" />
    <glyph glyph-name="k" unicode="k" horiz-adv-x="1431" 
d="M652 1250q56 0 109 -26q52 -28 52 -62v-8q-63 -168 -118 -296q6 4 12 4q10 0 21 -10q1 -1 2 -1q28 0 309 157q316 175 322.5 177.5t15.5 2.5q36 0 88 -33.5t68 -72.5q1 -2 1 -4q0 -63 -767 -449q-17 -21 -17 -31q0 -8 11 -8q24 0 224 -179q203 -183 208 -228v-3
q0 -36 -73 -79q-76 -45 -117 -45q-14 0 -14 8v2q0 40 -511 412q-194 -384 -255 -458q-17 -20 -41 -20q-53 0 -122 67q-61 59 -61 79q0 3 1 4q59 80 105 138q-8 62 -20 98q-1 5 -1 11q0 27 41 64q50 44 111 63q49 17 206 348q69 146 161 360q8 18 49 18z" />
    <glyph glyph-name="l" unicode="l" horiz-adv-x="873" 
d="M671 1207q41 0 89 -58q45 -55 45 -78q0 -3 -3 -3h-3q-36 0 -412 -740q-13 -26 -13 -43q0 -19 25 -19q13 0 69 9q61 10 109 13q63 4 90 66q12 24 15 59q46 15 98 15q99 0 124 -34q4 -6 4 -12q0 -28 -43 -110q-29 -58 -58 -114q-17 -36 -302 -96q-161 -31 -321 -62
q-13 -3 -35 -3q-53 0 -94 21q-53 26 -53 79q0 29 18 67q29 59 285 496q285 487 331 533q15 14 35 14z" />
    <glyph glyph-name="m" unicode="m" horiz-adv-x="1630" 
d="M655 1124q44 0 105 -10q48 -7 48 -82q0 -39 -12 -78q-12 -36 -21 -36h-2q-10 0 -10 -162q0 -101 4 -265q439 503 786 728q194 -95 194 -118q0 -5 -10 -7q-39 -4 -220 -500q-172 -464 -186 -548q-5 -24 -35 -24q-73 0 -208 96q-9 5 -9 26q0 95 140 446l-32 39
q-283 -259 -316 -321q-81 -154 -112 -190q-43 -48 -112 -48q-16 0 -37 2q-108 10 -108 108q0 46 29 167q26 155 32 230q4 19 4 36q0 69 -69 69q-26 0 -168 -291q-166 -338 -179 -358q-18 -30 -44 -30q-38 0 -70 51t-32 116q0 30 8 60q23 83 246 452q213 353 257 397.5
t139 44.5z" />
    <glyph glyph-name="n" unicode="n" horiz-adv-x="1302" 
d="M491 1107q15 2 50 20.5t53 18.5q20 0 34 -19q47 -54 109 -297q55 -214 88 -424q2 -6 3 -6q19 0 181.5 385t189.5 388q14 2 30 2q39 0 87 -13q80 -22 80 -61q0 -28 -249 -518q-237 -462 -237 -496q0 -1 1 -2q1 -3 1 -7q0 -12 -22 -25.5t-54 -13.5q-81 0 -122 99
q-10 23 -92 322q-63 228 -98 228q-36 -3 -59 -41q-13 -25 -26 -51q-12 -18 -120 -293q-110 -280 -110 -303q0 -16 -44 -16q-59 0 -105 30q-54 38 -54 104v7q100 245 200 489q211 484 285 493z" />
    <glyph glyph-name="o" unicode="o" horiz-adv-x="1245" 
d="M1012 213q-80 -102 -276 -163q-164 -50 -323 -50q-175 0 -280 61q-131 77 -131 237q0 213 121 421t312 338q200 137 411 137q182 0 310.5 -113t128.5 -295q0 -220 -273 -573zM338 244q69 -38 164 -38q167 0 376 215t209 382q0 85 -91 136q-73 41 -167 41
q-225 0 -400 -188.5t-175 -414.5q0 -87 84 -133z" />
    <glyph glyph-name="p" unicode="p" horiz-adv-x="1287" 
d="M832 1219q33 7 89 7q144 0 259 -44q155 -61 196 -186q4 -11 4 -25q0 -88 -162 -227q-155 -133 -367 -238q-227 -111 -392 -126q-10 -2 -95 -149q-93 -162 -115 -185q-50 -56 -106 -56q-57 0 -105 54q-41 46 -41 87q0 15 10 19q106 55 267 371q80 172 159 344q14 28 16 97
q2 76 10 106q23 76 373 151zM579 621q51 0 165.5 38.5t166.5 74.5q76 52 152 116q112 93 112 127q0 3 -2 6q-18 41 -190 41q-183 0 -256 -67q-17 -18 -94 -159q-76 -140 -76 -166v-3q2 -8 22 -8z" />
    <glyph glyph-name="q" unicode="q" horiz-adv-x="1261" 
d="M1075 300q90 -82 95 -151v-5q0 -37 -50 -78q-53 -44 -92 -44q-22 0 -25 19q-8 53 -54 111q-97 -74 -262 -116q-144 -36 -274 -36q-175 0 -280 61q-131 77 -131 237q0 212 123 423q119 206 310 336q200 137 411 137q182 0 310.5 -113t128.5 -295q0 -198 -210 -486z
M810 466q27 -11 75 -36q202 209 202 373q0 85 -91 136q-73 41 -167 41q-225 0 -400 -188.5t-175 -414.5q0 -87 84 -133q69 -38 164 -38q111 0 262 113q-52 36 -116 76q-4 5 -4 13q0 26 20 47q26 25 70 25q33 0 76 -14z" />
    <glyph glyph-name="r" unicode="r" horiz-adv-x="1287" 
d="M557 629q2 -8 22 -8q51 0 165.5 38.5t166.5 74.5q76 52 152 116q112 93 112 127q0 3 -2 6q-18 41 -190 41q-183 0 -256 -67q-17 -18 -94 -159q-76 -140 -76 -166v-3zM800 482q359 -166 370 -333v-5q0 -37 -50 -78q-53 -44 -93 -44q-20 0 -24 19q-21 154 -384 372
q-88 -27 -160 -33q-10 -2 -95 -149q-93 -162 -115 -185q-50 -56 -106 -56q-57 0 -105 54q-41 46 -41 87q0 15 10 19q106 55 267 371q80 172 159 344q14 28 16 97q2 76 10 106q23 76 373 151q33 7 89 7q144 0 259 -44q155 -61 196 -186q4 -11 4 -25q0 -94 -181 -244
q-173 -142 -399 -245z" />
    <glyph glyph-name="s" unicode="s" horiz-adv-x="1153" 
d="M1207 983q0 -59 -46 -101.5t-98 -42.5q-76 0 -86 91q-3 35 -72.5 63t-150.5 28q-80 0 -131 -31q-79 -40 -157 -79q-99 -56 -99 -111v-7q5 -47 163 -47q29 0 205 8h37q329 0 329 -285q0 -31 -6 -83q-16 -125 -197 -252q-193 -134 -399 -134q-355 0 -499 203q-3 3 -3 10
q0 31 75 85t119 54q22 0 25 -18q20 -109 367 -131q14 -1 28 -1q108 0 168 59q60 58 86 197q1 4 1 8q0 49 -119 75q-101 21 -252 21q-126 0 -160 -12q-13 -4 -33 -4q-66 0 -131 34q-72 37 -72 86v3q6 129 64 219q44 70 128 131q72 44 142 88q47 31 160 56q126 30 248 30
q278 0 352 -151q14 -29 14 -59z" />
    <glyph glyph-name="t" unicode="t" horiz-adv-x="842" 
d="M980 1178q40 -5 40 -123q0 -84 -16 -94.5t-346 -44.5q-73 -61 -73 -70q0 -1 1 -2q-77 -58 -219 -394q-71 -180 -141 -360q-81 -90 -130 -90q-52 0 -80 90q-2 5 -2 12q0 76 150 403q160 352 185 352h1q3 3 6 5q-3 6 -14 18q-5 3 -11 10q-63 -5 -111 -10q-116 -15 -145 -36
q-5 -3 -8 -3q-39 0 -39 181q0 30 1 38l380 62q371 58 521 58q30 0 50 -2z" />
    <glyph glyph-name="u" unicode="u" horiz-adv-x="1282" 
d="M486 1207q43 0 86 -29q36 -28 36 -48q0 -6 -5 -9q-30 -15 -176 -318q-157 -326 -157 -444q0 -65 87 -65q103 0 253 55.5t150 90.5t185 356q179 310 228 370q15 19 44 19q46 0 101.5 -41.5t55.5 -66.5q0 -12 -11 -15q-82 -28 -272 -464q-180 -415 -180 -532v-7
q-56 -12 -107 -12q-118 0 -123 64q-1 22 -39 22q-84 0 -406 -133q-19 -8 -38 -8q-70 0 -132.5 81t-62.5 177q0 20 3 38q10 62 167 398q44 97 213 448q36 73 100 73z" />
    <glyph glyph-name="v" unicode="v" horiz-adv-x="1040" 
d="M64 1020q0 40 62 76q58 34 106 34q12 0 16 -3q21 -15 21 -506q0 -95 -1 -208q92 209 193 339q84 110 220 218q151 115 302 229l130 -125q-60 -112 -85 -137q-54 -54 -209 -105q-100 -33 -244 -244q-105 -150 -223 -380q-52 -103 -104 -208q-217 105 -236 111q-6 2 -6 14
q0 45 53 98q22 23 22 315q0 372 -16 472q-1 4 -1 10z" />
    <glyph glyph-name="w" unicode="w" horiz-adv-x="1559" 
d="M242 1082q200 -44 200 -89q0 -5 -3 -10q-22 -34 -81.5 -223.5t-59.5 -220.5q0 -3 1 -3t2 2q141 158 282 317q189 214 213 214q2 0 3 -1q5 -3 17 -3q45 0 173 49l7 -596q129 172 259 342q251 326 277 326h1q138 -68 138 -112q0 -12 -319 -463q-298 -423 -298 -469
q0 -3 1 -4q1 -4 1 -7q0 -48 -257 -98q-18 483 -66 681q0 4 -2 4q-20 0 -213 -262q-214 -290 -270 -410q-17 -40 -103 -40q-108 0 -133 66q-6 18 -6 56q0 158 108 565q105 389 128 389z" />
    <glyph glyph-name="x" unicode="x" horiz-adv-x="1323" 
d="M711 754q2 -4 6 -4q33 0 270.5 198.5t253.5 198.5q4 0 25 2h35q116 0 116 -58q0 -23 -18 -56q-41 -72 -316 -265q-254 -180 -254 -212v-1q4 -54 6 -60q3 -15 20 -45q97 -180 144 -216q8 -6 8 -20q0 -36 -61 -95t-97 -59q-8 0 -14 4q-39 28 -111 140q-80 120 -99 194v1
q-13 0 -220 -165q-227 -180 -264 -236q-7 -8 -20 -8q-31 0 -74.5 37.5t-43.5 72.5q0 12 6 23q24 34 230 221q216 195 230 211q32 37 32 98q0 38 -13 59l-82 128q-69 108 -69 128q0 24 52.5 74t90.5 50q13 0 21 -6q60 -48 132 -182z" />
    <glyph glyph-name="y" unicode="y" horiz-adv-x="1039" 
d="M328 636q0 11 -7 13q-22 8 -111 159q-98 163 -98 241q0 55 42 95q40 32 81 32q37 0 41 -29q3 -40 99.5 -207.5t119.5 -167.5q1 0 4 2q65 117 275 327q165 165 242 165q60 0 92 -80q5 -12 5 -24q0 -48 -53.5 -104.5t-135.5 -100.5q-124 -67 -411 -426q-253 -318 -362 -505
q-10 -16 -26 -16q-34 0 -78.5 60.5t-44.5 96.5q0 15 11 16q33 6 171 211q57 84 131 202q13 25 13 40z" />
    <glyph glyph-name="z" unicode="z" horiz-adv-x="1100" 
d="M288 1029l99 45q603 132 693 132h8q38 -4 64.5 -58.5t26.5 -112.5q0 -44 -17.5 -63.5t-340.5 -286.5q-311 -259 -329 -291q-12 -20 -12 -37q0 -32 33 -32q8 0 19 3q81 24 163 49q145 41 190 41q15 0 20 -5q23 -23 49 -66q34 -55 34 -89q0 -25 -16 -34.5t-392 -101.5
q-348 -88 -356 -122q-4 -13 -19 -13q-41 0 -123 67q-76 62 -76 91q0 3 1 5q26 104 381 436q340 318 390 318h2q5 -1 9 -1q27 0 27 27q0 11 -3 20q-101 -24 -180 -44q-187 -51 -220 -80q-6 -5 -14 -5q-33 0 -76.5 65.5t-43.5 112.5q0 20 9 30z" />
    <glyph glyph-name="braceleft" unicode="{" horiz-adv-x="1095" 
d="M369 328q278 105 360 105q9 0 15 -1q47 -8 75.5 -66.5t28.5 -119.5q0 -53 -23 -68q-43 -28 -299 -106q-233 -73 -292 -73q-8 0 -13 1q-225 63 -225 150q0 10 4 22q64 209 256 664q248 587 342 614q301 84 475 84q68 0 76 -21q27 -59 27 -127q0 -75 -43 -102
q-33 -20 -215 -39q-168 -16 -172.5 -31.5t-51.5 -123.5q-39 -91 -39 -98v-1q-8 -8 -286 -663z" />
    <glyph glyph-name="bar" unicode="|" horiz-adv-x="1017" 
d="M225 -289q-16 -4 -43 -4q-67 0 -118 27q-66 33 -66 98q0 37 23 84q200 414 401 827q401 816 457 871q18 18 43 18q51 0 112 -73q56 -68 56 -97q0 -4 -4 -4h-4q-44 0 -549 -1130q-240 -533 -308 -617z" />
    <glyph glyph-name="braceright" unicode="}" horiz-adv-x="1124" 
d="M834 1229q-312 -111 -451 -111h-14q-33 2 -33 39q0 49 53 139q47 84 80 105q43 29 252 96q187 61 244 61q10 0 16 -2q225 -63 225 -147q0 -12 -4 -25q-69 -225 -256 -677q-245 -603 -340 -629q-100 -29 -309 -53q-186 -25 -258 -25q-45 0 -45 117q0 125 49 155
q33 21 227 39q183 19 187 33t121 295q108 261 108 270q6 9 148 320z" />
    <glyph glyph-name="asciitilde" unicode="~" horiz-adv-x="864" 
d="M571 1169q58 0 138 179q28 8 53 8q45 0 85 -32t79 -64q-4 -41 -47 -136q-66 -141 -154 -196q-80 -49 -141 -49q-64 0 -132.5 64.5t-101.5 64.5q-63 0 -155 -121q-72 41 -111 111q-32 57 -32 112q0 12 1 23q37 75 109.5 141.5t144.5 79.5q4 1 8 1q33 0 101 -45
q75 -50 101 -95.5t54 -45.5z" />
    <glyph glyph-name="exclamdown" unicode="&#xa1;" horiz-adv-x="672" 
 />
    <glyph glyph-name="cent" unicode="&#xa2;" horiz-adv-x="1139" 
 />
    <glyph glyph-name="sterling" unicode="&#xa3;" 
d="M748 1347q-72 31 -160 31h-2q-100 0 -190 -101q-84 -93 -84 -241q0 -15 1 -30q0 -135 53 -273h360v-60h-334q14 -30 31 -60q35 -63 35 -138q0 -161 -162 -375h402q130 0 189 132l49 -1l-103 -231h-719l1 50q187 238 187 418q0 77 -34 143q-17 32 -31 62h-161v60h135
q-58 143 -58 253q0 226 123.5 347t306.5 121h4q75 0 185.5 -14t110.5 -34v-161h-58q-5 61 -77 102z" />
    <glyph glyph-name="currency" unicode="&#xa4;" 
d="M350 560q41 -40 99 -57q29 -8 58 -8t58 8q58 17 99 57q40 41 57 99q9 29 9 58t-9 58q-17 58 -57 99q-41 40 -100 57q-29 8 -58 8t-58 -9q-58 -17 -98 -56q-39 -40 -56 -98q-10 -30 -10 -60q0 -28 9 -56q16 -59 57 -100zM240 903l-118 118l80 81l118 -118q44 30 99 46
q44 14 89 14q41 0 83 -12q57 -17 102 -48l118 118l80 -81l-117 -117q31 -46 48 -102q12 -42 12 -85q0 -42 -12 -85q-17 -56 -48 -102l117 -117l-80 -81l-118 118q-45 -32 -101 -48q-42 -12 -85 -12q-42 0 -85 12q-57 16 -102 48l-118 -118l-80 81l118 117q-32 46 -48 103
q-12 42 -12 84q0 44 13 87q16 55 47 99z" />
    <glyph glyph-name="yen" unicode="&#xa5;" horiz-adv-x="1262" 
d="M547 225l-2 242q0 19 -1.5 35t-4.5 32l-484 1q-14 0 -21 6.5t-7 19.5t6.5 19t21.5 6h467l-121 172h-344q-17 0 -23.5 5.5t-6.5 18.5q0 14 6 19.5t22 5.5h307q-43 57 -108 155q-131 197 -227 197q-7 0 -13 5.5t-6 11.5q0 19 10.5 27.5t32.5 8.5q27 0 123 -8t164 -8h88
q33 0 41 -6.5t8 -26.5q0 -8 -15 -14t-38 -6q-6 0 -18.5 2t-18.5 2q-24 0 -37.5 -9.5t-13.5 -25.5q0 -18 16.5 -52t46.5 -77l158 -221q13 -19 33 -53q41 -70 71 -70q9 0 16.5 5t14.5 15l277 396q8 12 13 26.5t5 24.5q0 18 -10 27t-37 14q-15 2 -41 4q-47 3 -47 25
q0 15 8 22.5t25 7.5q3 0 15 -1q56 -7 108 -7h139q30 0 65 1t37 1q11 0 18.5 -4.5t8.5 -11.5q0 -28 -38 -34q-18 -3 -27 -5q-63 -15 -147 -117q-7 -9 -12 -15l-169 -206h323q15 0 24 -6t9 -17q0 -15 -6 -20.5t-23 -5.5h-366q-46 -57 -96.5 -112.5t-52.5 -59.5h511
q18 0 25.5 -5.5t7.5 -17.5q0 -14 -7 -21t-22 -7h-530q0 -11 -1 -30.5t-1 -29.5l2 -215q0 -114 5.5 -150t20.5 -44q30 -17 107.5 -19t77.5 -31q0 -12 -10 -20t-25 -8q-2 0 -35.5 4t-64.5 4q-91 0 -208.5 -4t-142.5 -4q-31 0 -40 4t-9 16t8 18.5t37 12.5q9 2 25 5q74 16 92 32
q17 13 24 47t7 102z" />
    <glyph glyph-name="brokenbar" unicode="&#xa6;" 
d="M427 371h160v-789h-160v789zM427 1578h160v-789h-160v789z" />
    <glyph glyph-name="section" unicode="&#xa7;" 
d="M545 321q56 16 97 53q73 65 73 166q0 5 -1 10h-2q-1 14 -4 27q-22 61 -113 127q-59 29 -126 29q-78 0 -125 -44.5t-47 -117.5q0 -123 248 -250zM466 -346q113 6 185 69q72 64 72 165q0 125 -316 276q-123 64 -175.5 137t-52.5 177q0 148 89 237q67 65 170 82l-40 19
q-123 64 -175.5 137t-52.5 177q0 148 89 237q82 79 216 86q8 1 17 1h3q66 0 163 -16.5t97 -41.5v-194h-51q-5 81 -80 132q-70 47 -149 51h-15q-78 0 -125 -44.5t-47 -117.5q0 -132 287 -269q149 -67 204.5 -143.5t55.5 -187.5q0 -171 -101 -282q-47 -39 -99 -64
q108 -56 154 -118q55 -77 55 -187q0 -171 -101 -283q-124 -102 -277 -105v1q-6 -1 -13 -1h-3q-66 0 -163 16.5t-97 41.5v194h51q5 -81 80 -132q68 -45 145 -50z" />
    <glyph glyph-name="dieresis" unicode="&#xa8;" horiz-adv-x="1024" 
d="M223 1289l71 72q13 12 25 12q11 0 27 -14l69 -73q10 -14 10 -25q0 -13 -12 -27l-69 -75q-17 -17 -25 -17q-14 0 -25 12l-76 86q-9 12 -9 23q0 13 14 26zM588 1289l71 72q13 12 25 12q11 0 27 -13l69 -74q10 -14 10 -25q0 -13 -12 -26l-69 -76q-17 -17 -25 -17
q-14 0 -25 12l-76 87q-9 11 -9 22q0 13 14 26z" />
    <glyph glyph-name="copyright" unicode="&#xa9;" horiz-adv-x="1674" 
d="M840 1456q145 0 280 -56.5t239 -160.5q102 -101 158.5 -238t56.5 -283q0 -147 -56.5 -282t-162.5 -240q-105 -105 -239 -159.5t-283 -54.5q-146 0 -278 55.5t-238 160.5q-106 104 -161.5 237.5t-55.5 282.5q0 148 55.5 283t159.5 238q102 104 238.5 160.5t286.5 56.5z
M357 1197q-95 -96 -146 -219.5t-51 -259.5q0 -137 51 -259t148 -219q98 -96 219 -147t256 -51q137 0 259.5 50.5t219.5 145.5q97 98 149 221.5t52 258.5q0 134 -52 259.5t-145 219.5q-96 96 -220 147.5t-258 51.5q-137 0 -262 -51.5t-220 -147.5zM865 223q-142 0 -264 68
t-186 185t-64 243t65.5 244t187.5 184.5t254 66.5q38 0 75 -6.5t76 -20.5q5 -1 9 -1q19 0 26 30h42l72 -198h-44q-52 94 -131 124q-72 26 -147 26h-15q-86 -8 -166.5 -71t-121.5 -177q-33 -90 -33 -184q0 -25 2 -50q11 -121 69.5 -224t149.5 -152q72 -40 166 -42
q124 0 194 56t70 126h53v-100q0 -46 -96.5 -86.5t-242.5 -40.5z" />
    <glyph glyph-name="ordfeminine" unicode="&#xaa;" horiz-adv-x="648" 
 />
    <glyph glyph-name="guillemotleft" unicode="&#xab;" horiz-adv-x="944" 
d="M174 479l342 303h14v-37l-205 -266l205 -266v-37h-14zM487 479l342 303h14v-37l-205 -266l205 -266v-37h-14z" />
    <glyph glyph-name="logicalnot" unicode="&#xac;" 
d="M87 767h840v-491l-1 -1h-98v392h-741v100z" />
    <glyph glyph-name="registered" unicode="&#xae;" horiz-adv-x="1674" 
d="M751 1099v-374l3 -8q23 -56 56 -81q29 -22 56 -22h6q31 4 61.5 38.5t46.5 97.5q13 50 13 103q0 13 -1 27q-4 67 -28 124.5t-56.5 76t-63.5 18.5h-93zM984 576l82 -116q100 -141 150 -141h34v-50h-346v50h45q30 0 30 22q0 29 -69 114l-75 102q-42 0 -84 42v-159
q0 -121 36 -121h53v-50h-316v50h43q37 0 37 121v538q0 121 -37 121h-43v70h356q64 -1 125 -42q60 -41 92.5 -114t32.5 -152q0 -78 -32 -150.5t-114 -134.5zM840 1456q145 0 280 -56.5t239 -160.5q102 -101 158.5 -238t56.5 -283q0 -147 -56.5 -282t-162.5 -240
q-105 -105 -239 -159.5t-283 -54.5q-146 0 -278 55.5t-238 160.5q-106 104 -161.5 237.5t-55.5 282.5q0 148 55.5 283t159.5 238q102 104 238.5 160.5t286.5 56.5zM357 1197q-95 -96 -146 -219.5t-51 -259.5q0 -137 51 -259t148 -219q98 -96 219 -147t256 -51
q137 0 259.5 50.5t219.5 145.5q97 98 149 221.5t52 258.5q0 134 -52 259.5t-145 219.5q-96 96 -220 147.5t-258 51.5q-137 0 -262 -51.5t-220 -147.5z" />
    <glyph glyph-name="macron" unicode="&#xaf;" horiz-adv-x="670" 
 />
    <glyph glyph-name="degree" unicode="&#xb0;" horiz-adv-x="674" 
d="M339 1372q-86 0 -147.5 -61t-61.5 -148t61 -147t148 -60t147 60t60 147t-60.5 148t-146.5 61zM339 1442q115 0 196 -81.5t81 -196.5q0 -114 -82 -196t-197 -82q-117 0 -197 81t-80 197t81.5 197t197.5 81z" />
    <glyph glyph-name="plusminus" unicode="&#xb1;" 
 />
    <glyph glyph-name="uni00B2" unicode="&#xb2;" 
 />
    <glyph glyph-name="uni00B3" unicode="&#xb3;" 
 />
    <glyph glyph-name="acute" unicode="&#xb4;" horiz-adv-x="1024" 
d="M607 1375q35 35 55.5 47t40.5 12q33 0 53.5 -20t20.5 -51q0 -22 -15.5 -42t-46.5 -40l-330 -203h-69z" />
    <glyph glyph-name="mu" unicode="&#xb5;" horiz-adv-x="1180" 
 />
    <glyph glyph-name="paragraph" unicode="&#xb6;" horiz-adv-x="1024" 
d="M929 1435v-70h-127v-1365h-82v1365h-166v-1365h-84v738q-174 8 -275.5 102.5t-101.5 245.5q0 157 107.5 253t285.5 96h443z" />
    <glyph glyph-name="periodcentered" unicode="&#xb7;" horiz-adv-x="508" 
d="M145 740l82 84q15 14 29 14q13 0 31 -16l80 -86q12 -16 12 -29q0 -15 -14 -31l-80 -88q-20 -20 -29 -20q-16 0 -29 14l-88 101q-10 13 -10 26q0 15 16 31z" />
    <glyph glyph-name="periodcentered" unicode="&#x2219;" horiz-adv-x="508" 
d="M145 740l82 84q15 14 29 14q13 0 31 -16l80 -86q12 -16 12 -29q0 -15 -14 -31l-80 -88q-20 -20 -29 -20q-16 0 -29 14l-88 101q-10 13 -10 26q0 15 16 31z" />
    <glyph glyph-name="cedilla" unicode="&#xb8;" horiz-adv-x="1024" 
d="M360 -290q85 -52 152 -52q66 0 94.5 21.5t28.5 66.5t-49 64q-40 16 -102 16q-16 0 -34 -2l48 176h63l-37 -104q32 4 62 5q86 0 134 -40.5t48 -113.5q0 -76 -58.5 -120.5t-160.5 -44.5q-109 0 -189 32v96z" />
    <glyph glyph-name="uni00B9" unicode="&#xb9;" 
 />
    <glyph glyph-name="ordmasculine" unicode="&#xba;" horiz-adv-x="718" 
 />
    <glyph glyph-name="guillemotright" unicode="&#xbb;" horiz-adv-x="944" 
d="M115 176h-14v37l205 266l-205 266v37h14l342 -303zM428 176h-14v37l205 266l-205 266v37h14l342 -303z" />
    <glyph glyph-name="onequarter" unicode="&#xbc;" horiz-adv-x="1708" 
 />
    <glyph glyph-name="onehalf" unicode="&#xbd;" horiz-adv-x="1964" 
 />
    <glyph glyph-name="threequarters" unicode="&#xbe;" horiz-adv-x="1708" 
 />
    <glyph glyph-name="questiondown" unicode="&#xbf;" horiz-adv-x="748" 
 />
    <glyph glyph-name="Agrave" unicode="&#xc0;" horiz-adv-x="1540" 
 />
    <glyph glyph-name="Aacute" unicode="&#xc1;" horiz-adv-x="1540" 
 />
    <glyph glyph-name="Acircumflex" unicode="&#xc2;" horiz-adv-x="1540" 
 />
    <glyph glyph-name="Atilde" unicode="&#xc3;" horiz-adv-x="1540" 
 />
    <glyph glyph-name="Adieresis" unicode="&#xc4;" horiz-adv-x="1540" 
 />
    <glyph glyph-name="Aring" unicode="&#xc5;" horiz-adv-x="1540" 
 />
    <glyph glyph-name="AE" unicode="&#xc6;" horiz-adv-x="2118" 
 />
    <glyph glyph-name="Ccedilla" unicode="&#xc7;" horiz-adv-x="1399" 
 />
    <glyph glyph-name="Egrave" unicode="&#xc8;" horiz-adv-x="1151" 
 />
    <glyph glyph-name="Eacute" unicode="&#xc9;" horiz-adv-x="1151" 
 />
    <glyph glyph-name="Ecircumflex" unicode="&#xca;" horiz-adv-x="1151" 
 />
    <glyph glyph-name="Edieresis" unicode="&#xcb;" horiz-adv-x="1151" 
 />
    <glyph glyph-name="Igrave" unicode="&#xcc;" horiz-adv-x="657" 
 />
    <glyph glyph-name="Iacute" unicode="&#xcd;" horiz-adv-x="657" 
 />
    <glyph glyph-name="Icircumflex" unicode="&#xce;" horiz-adv-x="657" 
 />
    <glyph glyph-name="Idieresis" unicode="&#xcf;" horiz-adv-x="657" 
 />
    <glyph glyph-name="Eth" unicode="&#xd0;" horiz-adv-x="1518" 
 />
    <glyph glyph-name="Ntilde" unicode="&#xd1;" horiz-adv-x="1554" 
 />
    <glyph glyph-name="Ograve" unicode="&#xd2;" horiz-adv-x="1614" 
 />
    <glyph glyph-name="Oacute" unicode="&#xd3;" horiz-adv-x="1614" 
 />
    <glyph glyph-name="Ocircumflex" unicode="&#xd4;" horiz-adv-x="1614" 
 />
    <glyph glyph-name="Otilde" unicode="&#xd5;" horiz-adv-x="1614" 
 />
    <glyph glyph-name="Odieresis" unicode="&#xd6;" horiz-adv-x="1614" 
 />
    <glyph glyph-name="multiply" unicode="&#xd7;" 
d="M507 618l-247 -247l-99 99l247 247l-247 248l99 98l247 -247l248 247l98 -99l-247 -247l247 -247l-99 -99z" />
    <glyph glyph-name="Oslash" unicode="&#xd8;" horiz-adv-x="1614" 
 />
    <glyph glyph-name="Ugrave" unicode="&#xd9;" horiz-adv-x="1501" 
 />
    <glyph glyph-name="Uacute" unicode="&#xda;" horiz-adv-x="1501" 
 />
    <glyph glyph-name="Ucircumflex" unicode="&#xdb;" horiz-adv-x="1501" 
 />
    <glyph glyph-name="Udieresis" unicode="&#xdc;" horiz-adv-x="1501" 
 />
    <glyph glyph-name="Yacute" unicode="&#xdd;" horiz-adv-x="1233" 
 />
    <glyph glyph-name="Thorn" unicode="&#xde;" horiz-adv-x="1120" 
 />
    <glyph glyph-name="germandbls" unicode="&#xdf;" horiz-adv-x="1251" 
 />
    <glyph glyph-name="agrave" unicode="&#xe0;" horiz-adv-x="922" 
 />
    <glyph glyph-name="aacute" unicode="&#xe1;" horiz-adv-x="922" 
 />
    <glyph glyph-name="acircumflex" unicode="&#xe2;" horiz-adv-x="922" 
 />
    <glyph glyph-name="atilde" unicode="&#xe3;" horiz-adv-x="922" 
 />
    <glyph glyph-name="adieresis" unicode="&#xe4;" horiz-adv-x="922" 
 />
    <glyph glyph-name="aring" unicode="&#xe5;" horiz-adv-x="922" 
 />
    <glyph glyph-name="ae" unicode="&#xe6;" horiz-adv-x="1454" 
 />
    <glyph glyph-name="ccedilla" unicode="&#xe7;" horiz-adv-x="905" 
 />
    <glyph glyph-name="egrave" unicode="&#xe8;" horiz-adv-x="909" 
 />
    <glyph glyph-name="eacute" unicode="&#xe9;" horiz-adv-x="909" 
 />
    <glyph glyph-name="ecircumflex" unicode="&#xea;" horiz-adv-x="909" 
 />
    <glyph glyph-name="edieresis" unicode="&#xeb;" horiz-adv-x="909" 
 />
    <glyph glyph-name="igrave" unicode="&#xec;" horiz-adv-x="514" 
 />
    <glyph glyph-name="iacute" unicode="&#xed;" horiz-adv-x="514" 
 />
    <glyph glyph-name="icircumflex" unicode="&#xee;" horiz-adv-x="514" 
 />
    <glyph glyph-name="idieresis" unicode="&#xef;" horiz-adv-x="514" 
 />
    <glyph glyph-name="eth" unicode="&#xf0;" horiz-adv-x="1139" 
 />
    <glyph glyph-name="ntilde" unicode="&#xf1;" horiz-adv-x="1108" 
 />
    <glyph glyph-name="ograve" unicode="&#xf2;" horiz-adv-x="1010" 
 />
    <glyph glyph-name="oacute" unicode="&#xf3;" horiz-adv-x="1010" 
 />
    <glyph glyph-name="ocircumflex" unicode="&#xf4;" horiz-adv-x="1010" 
 />
    <glyph glyph-name="otilde" unicode="&#xf5;" horiz-adv-x="1010" 
 />
    <glyph glyph-name="odieresis" unicode="&#xf6;" horiz-adv-x="1010" 
 />
    <glyph glyph-name="divide" unicode="&#xf7;" 
d="M87 647v140h839l1 -1v-139h-840zM398 408l82 84q15 14 29 14q13 0 31 -16l80 -86q12 -16 12 -29q0 -15 -14 -31l-80 -88q-20 -20 -29 -20q-16 0 -29 14l-88 101q-10 13 -10 26q0 15 16 31zM398 1101l82 84q15 14 29 14q13 0 31 -16l80 -86q12 -16 12 -29q0 -15 -14 -31
l-80 -88q-20 -20 -29 -20q-16 0 -29 14l-88 101q-10 13 -10 26q0 15 16 31z" />
    <glyph glyph-name="oslash" unicode="&#xf8;" horiz-adv-x="1010" 
 />
    <glyph glyph-name="ugrave" unicode="&#xf9;" horiz-adv-x="1059" 
 />
    <glyph glyph-name="uacute" unicode="&#xfa;" horiz-adv-x="1059" 
 />
    <glyph glyph-name="ucircumflex" unicode="&#xfb;" horiz-adv-x="1059" 
 />
    <glyph glyph-name="udieresis" unicode="&#xfc;" horiz-adv-x="1059" 
 />
    <glyph glyph-name="yacute" unicode="&#xfd;" horiz-adv-x="868" 
 />
    <glyph glyph-name="thorn" unicode="&#xfe;" horiz-adv-x="1010" 
 />
    <glyph glyph-name="ydieresis" unicode="&#xff;" horiz-adv-x="868" 
 />
    <glyph glyph-name="dotlessi" unicode="&#x131;" horiz-adv-x="514" 
d="M328 223q0 -173 100 -173h46v-50h-442v50h46q100 0 100 173v432q0 77 -111 77h-48v44q222 69 261 182h48v-735z" />
    <glyph glyph-name="circumflex" unicode="&#x2c6;" horiz-adv-x="1024" 
d="M221 1079l232 355h118l232 -355h-58l-233 216l-233 -216h-58z" />
    <glyph glyph-name="caron" unicode="&#x2c7;" horiz-adv-x="1024" 
d="M221 1434h58l233 -214l233 214h58l-232 -356h-118z" />
    <glyph glyph-name="uni02C9" unicode="&#x2c9;" horiz-adv-x="1024" 
d="M254 1195v125h516v-125h-516z" />
    <glyph glyph-name="breve" unicode="&#x2d8;" horiz-adv-x="1024" 
d="M219 1349h51q17 -73 75 -107t167 -34t166 33.5t74 107.5h51q-20 -133 -94 -201.5t-197 -68.5q-122 0 -197 69t-96 201z" />
    <glyph glyph-name="dotaccent" unicode="&#x2d9;" horiz-adv-x="1024" 
d="M422 1289l69 72q6 6 13 9t14 3q6 0 12.5 -3t12.5 -9l71 -76q5 -4 7 -10t2 -14q-1 -9 -3 -15t-8 -12l-71 -76q-12 -11 -16 -13.5t-7 -2.5q-10 0 -16.5 2.5t-10.5 8.5l-75 87q-4 4 -6 9.5t-2 13.5q0 6 3 12.5t11 13.5z" />
    <glyph glyph-name="ring" unicode="&#x2da;" horiz-adv-x="1024" 
d="M411 1257q0 -42 29 -71t71 -29t71 29t29 71q0 40 -29.5 69.5t-70.5 29.5t-70.5 -29.5t-29.5 -69.5zM335 1257q0 75 51 126t125 51q76 0 127.5 -51.5t51.5 -125.5q0 -75 -51.5 -126.5t-127.5 -51.5q-74 0 -125 51.5t-51 126.5z" />
    <glyph glyph-name="ogonek" unicode="&#x2db;" horiz-adv-x="1024" 
d="M640 0q-71 -62 -110.5 -119.5t-39.5 -112.5q0 -47 27 -75t73 -28q40 0 69.5 15.5t49.5 48.5l28 -16q-36 -63 -90.5 -97t-119.5 -34q-70 0 -114 35.5t-44 90.5q0 76 60.5 156.5t161.5 135.5h49z" />
    <glyph glyph-name="tilde" unicode="&#x2dc;" horiz-adv-x="1024" 
d="M808 1382q-20 -103 -68.5 -154t-126.5 -51h-4q-50 0 -113 23q-66 24 -114 24q-39 0 -60.5 -20.5t-33.5 -71.5h-54q19 106 68 158.5t129 52.5q46 -1 113 -24q64 -23 112 -23h4q36 0 58 20t36 66h54z" />
    <glyph glyph-name="hungarumlaut" unicode="&#x2dd;" horiz-adv-x="1024" 
d="M217 1079l144 273q24 44 45.5 63t46.5 19q28 0 48 -20t20 -47q0 -16 -10.5 -35t-30.5 -41l-205 -212h-58zM502 1079l144 273q24 44 45.5 63t46.5 19q28 0 48 -20t20 -47q0 -16 -10.5 -35t-30.5 -41l-205 -212h-58z" />
    <glyph glyph-name="endash" unicode="&#x2013;" horiz-adv-x="1108" 
d="M56 419v120h996v-120h-996z" />
    <glyph glyph-name="emdash" unicode="&#x2014;" horiz-adv-x="2048" 
d="M0 419v120h2048v-120h-2048z" />
    <glyph glyph-name="quoteleft" unicode="&#x2018;" horiz-adv-x="557" 
d="M319 1016q-44 0 -88.5 65.5t-44.5 151.5q0 109 71 226.5t139 117.5v-43q-73 -43 -87 -190q0 -119 129 -161v-42z" />
    <glyph glyph-name="quoteright" unicode="&#x2019;" horiz-adv-x="557" 
d="M238 1577q44 0 88.5 -65.5t44.5 -151.5q0 -109 -71 -226.5t-139 -117.5v43q73 43 87 190q0 119 -129 161v42z" />
    <glyph glyph-name="quotesinglbase" unicode="&#x201a;" horiz-adv-x="557" 
d="M238 281q44 0 88.5 -65.5t44.5 -151.5q0 -109 -71 -226.5t-139 -117.5v43q73 43 87 190q0 119 -129 161v42z" />
    <glyph glyph-name="quotedblleft" unicode="&#x201c;" horiz-adv-x="910" 
d="M319 1016q-44 0 -88.5 65.5t-44.5 151.5q0 109 71 226.5t139 117.5v-43q-73 -43 -87 -190q0 -119 129 -161v-42zM672 1016q-44 0 -88.5 65.5t-44.5 151.5q0 109 71 226.5t139 117.5v-43q-73 -43 -87 -190q0 -119 129 -161v-42z" />
    <glyph glyph-name="quotedblright" unicode="&#x201d;" horiz-adv-x="910" 
d="M238 1577q44 0 88.5 -65.5t44.5 -151.5q0 -109 -71 -226.5t-139 -117.5v43q73 43 87 190q0 119 -129 161v42zM591 1577q44 0 88.5 -65.5t44.5 -151.5q0 -109 -71 -226.5t-139 -117.5v43q73 43 87 190q0 119 -129 161v42z" />
    <glyph glyph-name="quotedblbase" unicode="&#x201e;" horiz-adv-x="910" 
d="M238 281q44 0 88.5 -65.5t44.5 -151.5q0 -109 -71 -226.5t-139 -117.5v43q73 43 87 190q0 119 -129 161v42zM591 281q44 0 88.5 -65.5t44.5 -151.5q0 -109 -71 -226.5t-139 -117.5v43q73 43 87 190q0 119 -129 161v42z" />
    <glyph glyph-name="dagger" unicode="&#x2020;" 
d="M486 1022q-8 97 -54 178q-57 101 -57 129q0 49 36 78.5t96 29.5q57 0 94.5 -27.5t37.5 -71.5q0 -32 -55 -137q-46 -85 -55 -179q96 8 177 54q101 57 129 57q49 0 79 -36t30 -96q0 -57 -27.5 -94.5t-72.5 -37.5q-32 0 -136 55q-85 46 -179 57q8 -176 110 -277
q-106 -460 -112 -974h-38q-6 514 -114 974q102 101 111 277q-96 -10 -178 -55q-101 -57 -129 -57q-49 0 -78.5 36t-29.5 96q0 57 27.5 94.5t71.5 37.5q32 0 137 -56q85 -46 179 -55z" />
    <glyph glyph-name="daggerdbl" unicode="&#x2021;" 
d="M528 186q94 11 179 57q104 55 136 55q45 0 72.5 -37.5t27.5 -94.5q0 -60 -30 -96t-79 -36q-28 0 -129 57q-81 46 -177 54q9 -94 55 -179q55 -105 55 -137q0 -44 -37.5 -71.5t-94.5 -27.5q-60 0 -96 29.5t-36 78.5q0 28 57 129q46 81 54 178q-94 -9 -179 -55
q-105 -56 -137 -56q-44 0 -71.5 37.5t-27.5 94.5q0 60 29.5 96t78.5 36q28 0 129 -57q82 -45 178 -55q-9 226 -111 398q102 171 111 397q-96 -10 -178 -55q-101 -57 -129 -57q-49 0 -78.5 36t-29.5 96q0 57 27.5 94.5t71.5 37.5q32 0 137 -56q85 -46 179 -55q-8 97 -54 178
q-57 101 -57 129q0 49 36 78.5t96 29.5q57 0 94.5 -27.5t37.5 -71.5q0 -32 -55 -137q-46 -85 -55 -179q96 8 177 54q101 57 129 57q49 0 79 -36t30 -96q0 -57 -27.5 -94.5t-72.5 -37.5q-32 0 -136 55q-85 46 -179 57q8 -226 110 -397q-102 -172 -110 -398z" />
    <glyph glyph-name="bullet" unicode="&#x2022;" horiz-adv-x="1024" 
d="M216 718q0 123 87 209t210 86q122 0 208.5 -86.5t86.5 -208.5t-87.5 -209.5t-209.5 -87.5q-123 0 -209 87t-86 210z" />
    <glyph glyph-name="ellipsis" unicode="&#x2026;" horiz-adv-x="2048" 
d="M145 167l82 84q15 14 29 14q13 0 31 -16l80 -86q12 -16 12 -29q0 -15 -14 -31l-80 -88q-20 -20 -29 -20q-16 0 -29 14l-88 101q-10 13 -10 26q0 15 16 31zM828 167l82 84q15 14 29 14q13 0 31 -16l80 -86q12 -16 12 -29q0 -15 -14 -31l-80 -88q-20 -20 -29 -20
q-16 0 -29 14l-88 101q-10 13 -10 26q0 15 16 31zM1511 167l82 84q15 14 29 14q13 0 31 -16l80 -86q12 -16 12 -29q0 -15 -14 -31l-80 -88q-20 -20 -29 -20q-16 0 -29 14l-88 101q-10 13 -10 26q0 15 16 31z" />
    <glyph glyph-name="guilsinglleft" unicode="&#x2039;" horiz-adv-x="631" 
d="M174 479l342 303h14v-37l-205 -266l205 -266v-37h-14z" />
    <glyph glyph-name="guilsinglright" unicode="&#x203a;" horiz-adv-x="631" 
d="M115 176h-14v37l205 266l-205 266v37h14l342 -303z" />
    <glyph glyph-name="fraction" unicode="&#x2044;" horiz-adv-x="342" 
d="M-342 -29l940 1461h84l-938 -1461h-86z" />
    <glyph glyph-name="fraction" unicode="&#x2215;" horiz-adv-x="342" 
d="M-342 -29l940 1461h84l-938 -1461h-86z" />
    <glyph glyph-name="franc" unicode="&#x20a3;" 
d="M247 357h-194v60h194v732q0 235 -103 235h-96v50h915l103 -231h-49q-59 182 -190 182l-316 -1q-102 0 -102 -235v-352h361q100 0 100 63v58h50v-342h-50v60q0 62 -100 62h-361v-281h194v-60h-194v-72q0 -235 102 -235h97v-50h-560v50h96q103 0 103 235v72z" />
    <glyph glyph-name="lira" unicode="&#x20a4;" 
d="M748 1347q-72 31 -160 31h-2q-100 0 -190 -101q-84 -93 -84 -241q0 -15 1 -30q0 -106 33 -213h380v-60h-360q12 -30 26 -60h352v-60h-321q35 -63 35 -138q0 -161 -162 -375h402q130 0 189 132l49 -1l-103 -231h-719l1 50q187 238 187 418q0 77 -34 143l-2 2h-172v60h143
q-14 31 -26 60h-135v60h113q-36 107 -36 193q0 226 123.5 347t310.5 121q75 0 185.5 -14t110.5 -34v-161h-58q-5 61 -77 102z" />
    <glyph glyph-name="peseta" unicode="&#x20a7;" horiz-adv-x="2028" 
d="M409 1384v-662q3 -9 7 -17q41 -102 108 -153q57 -44 116 -44q10 0 19 1q68 8 127 75t87 177q22 87 22 179q0 24 -1 47q-7 116 -49.5 218.5t-108.5 144.5q-56 35 -112 35q-10 0 -21 -1h-194zM1496 908h-179v-685q0 -81 34 -119q28 -31 81 -37l-71 192l49 1
q55 -130 114 -174q57 -44 127 -44h7q92 0 151 52q59 53 59 136q0 102 -259 226q-101 52 -144 112t-43 145q0 121 73 194zM1039 910q-7 -101 -48 -194q-50 -114 -141 -177.5t-190 -63.5q-100 0 -191 64q-33 22 -60 51v-305q0 -235 102 -235h97v-50h-560v50h96q103 0 103 235
v864q0 235 -103 235h-96v50h618q92 -2 181 -62q91 -62 143 -177q50 -113 51 -237h10q216 0 216 355h50v-355h259q42 19 110 20h2q54 0 133.5 -13.5t79.5 -33.5v-159h-42q-4 66 -65.5 108t-133.5 42q-64 0 -102.5 -36.5t-38.5 -96.5q0 -108 235 -220q122 -55 167.5 -117.5
t45.5 -153.5q0 -140 -83 -231q-102 -84 -228 -86q-58 0 -105 11q-28 6 -56 6q-18 0 -36 -3q-28 -5 -59 -5q-124 0 -173.5 57t-57.5 176h-1v687h-129z" />
    <glyph glyph-name="Euro" unicode="&#x20ac;" 
d="M140 372q-62 135 -76 281h-108l17 60h87v29q0 16 1 31h-71l17 60h58q14 145 76 281q81 178 226 274t298 96q43 0 87 -8q40 -10 82 -29q8 -6 16 -6q20 0 34 45h41l84 -281l-40 -1q-49 134 -138 178q-43 22 -81 32v3q-50 16 -101 16q-17 0 -34 -2q-120 -12 -226 -113.5
t-157 -273.5q-32 -104 -39 -211h706l-17 -60h-692q0 -30 2 -60h674l-17 -60h-652q17 -158 83 -298q74 -157 193 -236q102 -68 216 -69q186 3 256 91q74 91 74 185h48v-143q0 -70 -111 -127q-105 -54 -267 -56q-181 0 -325.5 98t-223.5 274z" />
    <glyph glyph-name="afii61352" unicode="&#x2116;" horiz-adv-x="2271" 
 />
    <glyph glyph-name="trademark" unicode="&#x2122;" horiz-adv-x="1497" 
 />
    <glyph glyph-name="partialdiff" unicode="&#x2202;" 
d="M232 537q0 -41 5 -79q14 -122 61.5 -230t118.5 -165q64 -53 128 -53q6 0 13 1q70 5 127.5 70.5t80.5 179.5q16 73 16 149q0 42 -5 85q-14 122 -62.5 231.5t-119.5 165.5q-65 50 -128 50h-11q-68 -5 -126 -69.5t-82 -178.5q-16 -84 -16 -157zM937 477q0 -132 -56.5 -251
t-159 -185t-214.5 -66t-214.5 66t-159 185t-56.5 251q0 131 58 251t161 185t211 65q109 0 212 -65q29 -18 54 -41q-84 235 -233.5 377t-326.5 155v55q306 0 515 -285t209 -697z" />
    <glyph glyph-name="Delta" unicode="&#x2206;" horiz-adv-x="1081" 
d="M514 1195l-406 -1072h801zM547 1434l526 -1434h-1067z" />
    <glyph glyph-name="product" unicode="&#x220f;" horiz-adv-x="1515" 
d="M511 1384q-102 0 -102 -235v-1281q0 -235 102 -235h97v-51h-560v51h96q103 0 103 235v1281q0 235 -103 235h-96v50h1419v-50h-97q-102 0 -102 -235v-1281q0 -235 102 -235h97v-50h-560v50h96q103 0 103 235v1281q0 235 -103 235h-492z" />
    <glyph glyph-name="summation" unicode="&#x2211;" horiz-adv-x="1206" 
d="M1059 548l-788 -914h635q130 0 189 182h49l-103 -232h-921v50q62 0 106 53l663 781l-663 859q-44 57 -106 57v50h921l103 -232h-49q-59 182 -189 182h-485z" />
    <glyph glyph-name="minus" unicode="&#x2212;" 
d="M87 647v140h839l1 -1v-139h-840z" />
    <glyph glyph-name="radical" unicode="&#x221a;" 
d="M181 0l-164 359l74 35l85 -185l728 1470h150v-60h-72z" />
    <glyph glyph-name="infinity" unicode="&#x221e;" 
d="M439 755q-15 103 -74 133q-46 22 -84 22q-12 0 -23 -2q-49 -10 -92.5 -44.5t-65.5 -84.5q-20 -46 -20 -90v-8q2 -48 27.5 -89t71.5 -58q29 -11 61 -11q16 0 33 3q47 10 90.5 43.5t75.5 185.5zM466 687q12 -96 94 -153q69 -48 123 -48q11 0 21 2q62 12 117.5 52t84.5 101
q26 54 26 108v11q-2 60 -35.5 108.5t-91.5 68.5q-37 13 -76 13q-22 0 -44 -4q-67 -9 -127 -62t-92 -197zM450 827q9 35 21 69q34 88 95 137t128 49t128 -48t95 -135t34 -182t-34 -182t-95 -135t-128 -48t-128 49t-95 136q-12 35 -21 70q-5 -21 -12 -41q-27 -73 -74 -113
t-99 -40t-100 41t-73.5 113.5t-25.5 149.5q0 76 25.5 149t73.5 114t100 41t99 -40t74 -112q7 -21 12 -42z" />
    <glyph glyph-name="integral" unicode="&#x222b;" horiz-adv-x="665" 
d="M-12 -281q-60 0 -60 29v159h36q1 -43 34.5 -64.5t63.5 -21.5h1q82 0 115 162q32 162 40 316l70 734l8 62q27 238 135 429.5t234 191.5q60 0 60 -29v-159h-36q-1 43 -35 64.5t-63 21.5q-71 0 -116 -155.5t-49 -363.5l-73 -767q-20 -231 -130.5 -420t-234.5 -189z" />
    <glyph glyph-name="approxequal" unicode="&#x2248;" 
d="M923 1053v-156q-63 -72 -122 -97.5t-116 -25.5q-60 0 -177.5 48.5t-176.5 48.5q-51 0 -107.5 -28t-129.5 -112v156q64 73 123 99t114 26q64 0 181.5 -49.5t172.5 -49.5q52 0 108.5 28t129.5 112zM923 705v-156q-63 -72 -122 -97.5t-116 -25.5q-60 0 -177.5 48.5
t-176.5 48.5q-51 0 -107.5 -28t-129.5 -112v156q64 73 123 99t114 26q64 0 181.5 -49.5t172.5 -49.5q52 0 108.5 28t129.5 112z" />
    <glyph glyph-name="lessequal" unicode="&#x2264;" 
d="M927 1074l-625 -359l625 -355v-167l-840 481v83l840 484v-167zM87 1v140h839l1 -1v-139h-840z" />
    <glyph glyph-name="greaterequal" unicode="&#x2265;" 
d="M87 1241l840 -484v-83l-840 -481v167l625 355l-625 359v167zM87 2v140h839l1 -1v-139h-840z" />
    <glyph glyph-name="uniF001" unicode="&#xf001;" horiz-adv-x="1073" 
 />
    <glyph glyph-name="uniF001" unicode="&#xfb01;" horiz-adv-x="1073" 
 />
    <glyph glyph-name="uniF002" unicode="&#xf002;" horiz-adv-x="1081" 
 />
    <glyph glyph-name="uniF002" unicode="&#xfb02;" horiz-adv-x="1081" 
 />
    </font>
</defs>
</svg>
